<svg width="522" height="531" xmlns="http://www.w3.org/2000/svg" version="1.1">
 <g>
  <title>Layer 1</title>
  <path d="m511.25968,0.50566l-113.12,34.723c-6.7188,2.2383 -7.2812,11.762 -0.55859,14.559l35.84,14l-71.684,71.121c-97.438,-82.32 -238.56,-90.16 -342.16,-69.441c-13.441,2.8008 -21.84,15.68 -19.039,28.559c2.8008,13.441 15.68,21.84 28.559,19.039c7.8398,-1.6797 16.238,-2.8008 24.078,-3.9219l166.88,166.88l-72.797,73.926l-39.762,-9.5195c-2.8008,-0.55859 -5.6016,0 -7.8398,2.2383l-16.238,16.238c-4.4805,4.4805 -2.2383,12.32 3.9219,13.441l29.68,7.2812l-19.039,19.039l-39.203,-9.5195c-2.8008,-0.55859 -5.6016,0 -7.8398,2.2383l-16.238,16.238c-4.4805,4.4805 -2.2383,12.32 3.9219,13.441l44.238,10.641c2.8008,0.55859 5.6016,2.8008 6.1602,6.1602l10.641,44.238c1.6797,6.1602 8.9609,8.3984 13.441,3.9219l16.238,-16.238c2.2383,-2.2383 2.8008,-5.0391 2.2383,-7.8398l-8.9609,-39.199l19.039,-19.039l6.7188,29.68c1.6797,6.1602 8.9609,8.3984 13.441,3.9219l16.238,-16.238c2.2383,-2.2383 2.8008,-5.0391 2.2383,-7.8398l-9.5195,-39.762l73.359,-73.359l178.64,178.07c-1.1211,8.3984 -2.8008,16.238 -3.9219,24.078c-2.8008,13.441 5.6016,26.32 19.039,28.559c1.6797,0.55859 3.3594,0.55859 5.0391,0.55859c11.199,0 21.281,-7.8398 24.078,-19.602c21.84,-108.08 12.32,-255.92 -79.52,-353.92l71.121,-71.121l14,35.84c2.8008,6.7188 12.32,6.1602 14.559,-0.55859l34.719,-112.56c0.56641,-5.5898 -5.0312,-11.191 -10.633,-8.9531l0.00699,0.0008zm-413.84,104.72c78.398,-3.9219 165.2,11.762 230.16,64.398l-82.879,82.32l-147.281,-146.718zm329.28,329.28l-157.92,-158.48l83.441,-82.879c60.48,65.52 78.961,158.48 74.48,241.36l-0.001,-0.001z" id="svg_23"/>
 </g>

</svg>