<svg width="640" height="640" xmlns="http://www.w3.org/2000/svg" version="1.1">

 <g>
  <title>Layer 1</title>
  <g id="svg_78">
   <path id="svg_25" d="m521.39964,485.36457c-7.043,-5.5781 -15.023,-11.898 -17.527,-18.344c-2.4297,-6.2422 0.12891,-10.605 3.668,-16.633c3.8008,-6.4805 8.5273,-14.543 7.1797,-27.055c-1.457,-13.473 -4.9883,-24.062 -9.207,-32.289l67.008,-57.418l-85.617,-11.07l11.703,19.023l-18.648,5.9375c12.812,-44.941 -1.8555,-70.469 -10.797,-85.914c-2.918,-5.0391 -5.4414,-9.3906 -6.0859,-12.801c-1.7148,-9.0234 4.4414,-15.102 10.953,-21.539c3.3203,-3.2773 6.7422,-6.6641 8.8984,-10.426c2.0156,-3.5352 0.98438,-7.582 -2.6992,-10.574c-8.4375,-6.8555 -28.984,-8.4883 -51.895,4.7227c-12.945,-64.477 -35.449,-89.887 -40.512,-94.898c-0.11719,-9.3867 -7.6758,-19.75 -19.266,-26.188c-9.8516,-5.4727 -22.328,-1.2656 -26.594,0.46484c-4.043,-2.3125 -16.605,-7.3477 -49.32,-7.3477c-35.559,0 -57.309,12.188 -62.781,15.652c-3.8594,-1.4336 -14.172,-3.9141 -25.672,4.457c-12.266,8.9141 -13.082,28.023 -13.055,33.543c-3.8125,3.2578 -6.7539,8.8945 -9.0625,15.641c-5.6055,-3.3438 -16.477,-9.207 -22.371,-8.1484c-1.9922,0.35156 -6.4922,-0.42969 -10.449,-1.125c-8.8594,-1.5625 -18.004,-3.1641 -19.48,3.1484c-1.0547,4.5078 -7.6953,8.1758 -11.84,7.5938c-0.78516,-0.10547 -1.8242,-0.39844 -3.0703,-0.73438c-7.293,-1.9727 -22.469,-6.0664 -34.066,9.3984c-9.5195,12.695 -11.766,44.547 -12.281,61.219l-1.0352,-1.8555l0.90234,12.516c0.62891,8.793 15.445,214.48 16.656,220.63c1.3672,7.0039 18.867,23.766 34.465,23.766l0.37109,0c9.5586,0 14.93,0.74609 17.414,0.80078c2.1523,4.6641 4.8945,9.8164 8.3906,14.402l4.4531,-3.1797c-12.773,-16.754 -14.684,-35.945 -14.801,-44.98c9.832,6.7461 19.531,10.555 22.812,11.727c3.3281,7.168 9.25,13.453 17.754,18.672c3.7305,2.2891 7.3867,4.0195 10.965,5.2188c0.60547,0.95703 1.7188,2.7031 3.207,4.9727c-13.164,-2.7539 -54.398,-7.4609 -57.574,40.84c0,0 0.96875,25.508 49.609,24.922c37.078,-0.45312 48.223,-10.949 51.438,-15.922c13.184,10.309 24.773,18.199 50.742,18.723c6.8828,0.13281 13.535,0.60547 19.977,1.0586c7.2422,0.50781 14.348,1.0117 21.414,1.0117c13.5,0 26.867,-1.8242 40.812,-8.8984c3.293,-1.6758 6.4727,-3.4336 9.5469,-5.2422c14.133,4.3164 67.57,18.973 113.95,9.2773c0,0 11.949,-8.3008 1.3945,-29.379c0.80078,0.03516 1.625,0.08984 2.3984,0.08984c3.1484,0 6.0664,-0.24609 8.6953,-0.62109c16.262,-2.3633 28.48,-10.785 31.961,-16.004c4.5898,-6.875 -3.9688,-13.656 -13.035,-20.844l0.00277,0.00201zm-16.328,-95.148c-5.7109,-10.801 -12.531,-17.375 -17.148,-20.922l16.703,-5.1016l0.445,26.0236zm54.258,-52.652l-48.836,41.848l-0.50781,-30.043l-12.156,-19.746l61.49981,7.941zm-54.926,13.43l0.125,7.3594l-229.53,70.113c-0.57812,-2.8945 -1.4453,-5.9141 -2.8125,-8.9258l229.45,-73.047l2.7675,4.5004zm-173.43,83.945c0.32031,11.586 -2.832,22.52 -8.3594,28.379c-3.2188,3.4102 -7.2344,5.0352 -11.723,5.0195c-11.859,-0.20312 -14.656,-18.211 -15.27,-24.594c9.8906,-2.5 22.207,-5.5781 35.352,-8.8047l0.0004,0.0002zm-40.859,9.7891c0.89453,8.293 4.7266,28.391 20.68,28.391l0.38672,0c5.9531,0 11.305,-1.9258 15.508,-6.3672c8.0586,-8.5352 10.355,-22.398 9.8555,-33.383c12.609,-3.0742 25.703,-6.1055 37.879,-8.9102c1.3672,9 9.8438,25.691 19.102,31.395c2.1992,1.3555 4.4688,1.332 6.7422,2.1602c-10.781,17.398 -46.582,54.305 -92.102,54.305l-0.85156,0c-42.426,0 -74.02,-38.914 -80.203,-47.23c0.15625,-0.21094 0.30078,0.10156 0.45313,-0.10547l45.543,-15.965c0.59375,-0.15234 7.0508,-1.7656 17.008,-4.2891l-0.00099,-0.00123zm93.273,-22.199c1.5273,6.4727 6.4336,21.996 19.57,29.973l2.9102,-4.7891c-11.211,-6.8086 -15.613,-20.691 -17,-26.402c1.6445,-0.36328 3.2578,-0.71875 4.8398,-1.0547c2.5195,5.6289 9.6094,19.629 18.891,22.668l1.7422,-5.3242c-6.1055,-1.9922 -12.02,-12.234 -14.996,-18.535c9.2227,-1.9258 16.812,-3.3359 21.578,-3.8984c16.426,-1.9375 25.16,-0.99219 30.168,3.2383c2.2344,1.8867 3.8398,4.6641 4.918,8.4102c-5.9062,17.754 -20.172,24.336 -30.469,27.727c-7.3984,2.4258 -19.656,2.4023 -29.07,-3.3945c-8.9648,-5.5273 -16.07,-22.293 -16.664,-27.797c1.2031,-0.28906 2.3906,-0.55078 3.582,-0.82031l-0.0002,-0.00129zm-147.87,13.789c0,-0.98047 2.3672,-4.3125 6.7031,-6.9336c5.9961,-3.6328 9.2891,-10.258 8.6016,-17.293c-0.08984,-0.91797 -0.25781,-1.8125 -0.47656,-2.6953c1.0234,-0.32031 2.5195,-0.78906 4.4648,-1.3945c17.914,11.414 16.023,31.137 15.07,36.68l-36.719,12.906c4.5,-5.9141 4.9023,-18.039 2.3555,-21.27l0.00056,0.0004zm1.3281,-69.379c-3.5938,-1.9766 -8.332,-3.0234 -13.699,-3.0391c-1.9531,-3.4648 -7.543,-11.625 -19.156,-16.391c-7.2695,-2.9805 -18.031,-12.125 -26.684,-19.477c-9.2578,-7.8672 -13.844,-11.664 -16.84,-11.969c-0.48828,-0.05078 -1.1797,-0.20703 -2.0547,-0.39844c-0.80078,-0.17188 -1.8086,-0.37891 -2.9219,-0.58203l13.461,-9.7344c1.1406,0.23047 2.3594,0.33984 3.6562,0.33984c3.9219,0 7.1953,-1.8633 10.02,-4.9297c7.5039,5.1641 34.016,23.867 48.383,40.219c12.477,14.195 39.441,40.828 46.945,42.941l0,0.00391c0.375,0.11719 4.6406,1.3945 11.738,1.3945c8.6562,0 21.531,-1.9023 36.707,-10.148c9.6953,-5.2578 18.352,-8.9102 25.996,-12.117c13.402,-5.6406 24.969,-10.512 35.191,-21.379c4.0664,-4.3164 7.9922,-7.6328 11.465,-10.562c9.6719,-8.1523 16.66,-14.039 10.062,-29.332c-3.9688,-9.1992 -3.5742,-14.555 -2.6133,-18.418c3.5,5.6719 7.3711,10.848 10.695,15.277c3.9531,5.2734 7.3711,9.8281 8.4727,12.852c4.9688,13.699 6.3438,19.77 -9.7891,32.562c-13.203,10.477 -114.94,43.754 -167.7,60.145c-2.0039,-3.3281 -5.0117,-6.1133 -8.8633,-8.0586c2.9883,-6.543 8.9727,-22.898 -2.4688,-29.199l-0.0018,0.00002zm-79.617,-45.797c1.1328,0.24219 2.0391,0.42969 2.5977,0.48047c1.8047,0.42969 8.4844,6.1094 13.855,10.672c9.418,8.0039 20.094,17.074 28.184,20.395c7.8125,3.2031 12.5,8.2812 14.918,11.664c-13.586,1.8984 -30.184,10.07 -41.797,28.477c-11.445,18.148 -23.27,39.043 -19.207,57.746c-10.031,-4.2617 -31.465,-15.262 -37.664,-33.605l-1.3672,-4.0195c-7.8047,-22.855 -12.516,-36.652 1.2812,-68.68c12.465,-28.902 31.191,-24.871 39.199,-23.129l0.0003,-0.00097zm32.871,-33.215c6.5859,4.2734 22.77,14.98 29.43,21.281l3.7617,3.6055c8.4297,8.1094 17.977,17.309 27.199,21.312l2.2305,-5.1406c-8.3008,-3.6016 -17.863,-12.809 -25.547,-20.203l-3.7969,-3.6328c-7.4688,-7.0742 -25.414,-18.809 -31.27,-22.586c2.1016,-6.1133 3.8906,-12.797 5.6055,-19.203c2.1953,-8.2109 4.2656,-15.961 6.3672,-19.465c3.5039,-5.8398 10.109,-13.668 19.621,-21.117l3.0469,20.621c-2.7734,-2.375 -4.4805,-5.543 -4.3008,-9.2461c0.19531,-4.1719 -11.867,16.016 -11.867,29.664c0,13.648 9.4922,27.883 31.445,27.883c0.40234,0 0.81641,-0.08594 1.2227,-0.10547c6.2266,11.574 26.672,45.758 51.289,45.758c25.57,0 48.242,-32.426 53.898,-45.965c18.258,-2.0703 25.426,-15.055 25.426,-27.562c0,-10.863 -5.8906,-25.84 -11.492,-29.398l0,-14.969c22.398,10.625 32.277,24.062 32.277,29.66l1.9492,0c-1.0078,11.199 1.2773,17.219 4.9453,25.047l-1.1797,-0.84375c-0.14453,0.19531 -15.047,19.773 -27.586,31.809c-12.914,12.383 -38.371,30.082 -56.984,37.07c-18.555,6.9609 -37.789,5.207 -42.688,3.7695l-1.5664,5.3867c2.7344,0.79688 8.0938,1.5469 14.879,1.5469c8.9102,0 20.277,-1.2891 31.348,-5.4492c19.543,-7.3359 45.289,-25.211 58.891,-38.254c9.2188,-8.8438 19.348,-21.219 24.594,-27.844c-1.2109,4.4805 -2.1289,11.379 2.7383,22.652c4.9492,11.473 1.0039,14.801 -8.5273,22.836c-3.5898,3.0234 -7.6484,6.4453 -11.934,11c-9.4141,10.012 -19.945,14.441 -33.281,20.059c-7.7617,3.2656 -16.555,6.9609 -26.488,12.359c-25.406,13.789 -43.934,8.3711 -44.566,8.2422c-3.4961,-1.0703 -26.035,-20.828 -43.949,-41.211c-14.855,-16.906 -41.289,-35.566 -49.242,-41.02c1.4922,-2.4609 2.8594,-5.2734 4.1016,-8.3477l-0.0008,0.00082zm166.67,-44.465c0,2.6875 -6.9375,4.3242 -11.973,4.3242c-9.1016,0 -12.891,-15.766 -25.766,-17.602c-0.69531,-12.824 -5.4102,-23.223 -11.766,-29.535c18.566,2.3242 38.305,8.4141 49.504,15.777l0.001,27.0358zm-90.473,38.266c3.3711,6.7148 11.301,18.094 26.344,18.094c15.02,0 23.223,-11.016 26.848,-17.746c7.293,5.207 15.266,9.207 22.82,9.5195c-6.0586,12.098 -26.047,40.129 -47.773,40.129c-20.289,0 -38.645,-29.035 -45.414,-41.137c5.8203,-1.6016 11.699,-4.8906 17.176,-8.8594l-0.001,-0.0001zm47.555,-51.504c-12.137,1.7656 -20.418,13.406 -20.418,13.406s-1.7812,11.867 0,13.641c1.0117,1.0117 9.9688,12.074 21.539,21.387c-2.7891,5.4922 -9.6211,15.562 -22.328,15.562c-13.008,0 -19.434,-10.59 -21.852,-15.934c11.34,-9.2305 20.059,-20.016 21.062,-21.016c1.7812,-1.7812 0,-13.641 0,-13.641s-7.8906,-11.109 -19.555,-13.281l2.8125,0.10547c0.57812,-15.59 9.2617,-30.891 17.535,-30.891c11.727,0 20.152,12.422 21.203,30.66l0.0015,0.00153zm-44.324,-0.19531c-0.66016,-0.03516 -1.3203,-0.07422 -2,-0.04297c-14.234,0.59375 -18.391,17.797 -27.883,17.797c-2.3672,0 -4.6523,-0.35156 -6.7422,-1.0117l-4.0977,-27.754c12.906,-8.9102 30.23,-16.586 51.664,-18.77c-6.3164,6.9961 -10.48,18.754 -10.941,29.781l-0.0001,0.00067zm207.18,-19.41c2.2734,1.8477 1.5898,3.0508 1.3672,3.4453c-1.7695,3.0898 -4.7812,6.0703 -7.9727,9.2188c-6.9258,6.8477 -14.789,14.609 -12.516,26.562c0.81641,4.3516 3.4336,8.8594 6.7383,14.566c9.2969,16.043 23.238,40.234 9.2305,85.152l-204.18,64.996c-2,-3.0586 -4.5586,-6.0039 -7.8789,-8.6641c37.082,-11.703 143.21,-45.824 157.85,-57.445c18.047,-14.312 17.383,-22.832 11.57,-38.859c-1.3789,-3.8086 -4.8555,-8.4375 -9.25,-14.309c-4.793,-6.3906 -10.152,-13.598 -14.102,-21.258c-0.02344,-0.04297 -0.01562,-0.09375 -0.03906,-0.14062l-0.02344,0.01172c-7.5156,-14.656 -9.7266,-30.98 7.8164,-46.574c27.309,-24.262 53.852,-22.797 61.387,-16.703l0.0027,0.0009zm-53.441,3.5273c-3.2031,2.1289 -6.4336,4.5938 -9.6719,7.3398l-45.176,-43.152l17.793,-55.676c7.3008,8.5273 26.039,34.992 37.055,91.488l-0.0001,0.0002zm-84.723,-118.62l-14.168,69.598l-70.738,0l-20.133,-61.473c5.7891,-3.4883 26.488,-14.41 59.141,-14.41c30.289,-0.00391 42.285,4.4766 45.898,6.2852l0,-0.0002zm-131.06,12.152c9.5469,-6.9453 17.758,-4.1445 20.418,-3.1289l21.688,66.176l40.887,0c-6.0859,0 -8.9336,6.4414 -8.9336,10.438c0,5.3945 3.0781,11.395 11.754,11.395c8.6797,0 14.012,-5.8984 14.012,-10.457c0,-4.1719 -2.3516,-11.379 -8.3789,-11.379l30.004,0l15.199,-74.559c3.4609,-1.3945 14.012,-5.332 21.695,-1.0547c10.035,5.5703 16.703,14.449 16.352,21.895l-20.16,63.039l47.441,45.289c-5.7969,5.6836 -9.4141,11.457 -11.305,17.238c-10.09,-18.848 -56.375,-48.586 -105.51,-48.586c-51.52,0 -83.598,30.762 -93.363,47.035c-2.5078,4.1836 -4.582,11.93 -6.9766,20.898c-4.3047,16.117 -10.207,38.191 -19.691,38.191c-3.3672,0 -5.6328,-0.96875 -7.1289,-3.0508c-7.6875,-10.672 4.0156,-49.969 13.664,-79l42.719,-32.34l-25.109,-48.391c-0.0625,-3.3672 0.09375,-21.918 10.723,-29.648l0,0.0004zm87.344,66.781c6.8086,0 6.8867,6.6094 6.8867,6.8867c0,1.3672 -2.8945,5.3086 -8.4102,5.3086c-4.082,0 -6.1562,-2.0508 -6.1562,-6.0977c-0.00391,-1.2891 1.3008,-6.0977 7.6797,-6.0977l0,0.0001zm-137.4,109.8c-8.625,1.4688 -43.148,5.0273 -81.426,-22.055c-0.53906,-7.4258 -1.0312,-14.324 -1.4766,-20.492c9.4453,7.7461 32.805,20.008 85.902,21.055c-1.8789,8.6523 -2.8594,15.723 -3,21.492l0.0006,0zm35.742,-141.7l21.555,41.535l-35.066,26.551c0.48828,-19.512 3.5039,-56.371 13.512,-68.086l-0.001,0zm-110.8,29.523l0,54.633l5.6016,0l-0.00391,-63.523c11.199,-9.2773 19.176,-6.4805 25.652,-4.7305c1.5273,0.41406 2.6992,0.75 3.668,0.87891c6.6992,0.875 16.191,-4.1875 17.879,-11.691c1.3984,-1.1602 9.1406,0.19141 13.25,0.91797c2.3398,0.41016 6.7539,0.80078 6.7539,1.0469l0,37.902l5.6016,0l0,-37.816c0,-0.00391 -0.0039,0 0.03907,-0.01172c3.4844,-0.67188 12.965,4.0898 19.633,8.1602c-5.9766,22.035 -6.0312,51.961 -6.0547,58.031c-0.97656,2.9453 -2.4219,5.7773 -2.4219,8.543l0,-53.707l-5.6016,0l0,67.199l0.51562,0c-2.0625,5.6016 -5.0195,13.422 -6.3945,19.113c-1.375,-0.02343 0.28125,0.14062 -5.3164,0.10156l0,-47.215l-5.6016,0l0,47.008c0,-0.14062 -5.6016,-0.32422 -5.6016,-0.54297l0,-102.46l-5.6016,0l0,101.98c-5.6016,-0.45312 -11.199,-1.0117 -11.199,-1.6445l0.0039,-89.133l-5.6016,0l0,88.168c-11.199,-1.2266 -16.801,-2.6562 -22.398,-4.1758l0,-50.391l-5.6016,0l0,48.457c-11.199,-5.7383 -19.359,-12.117 -20.715,-13.906c-0.0039,-5.8867 3.9141,-42.648 9.5156,-61.184l-0.00028,-0.00805zm52.602,301.79c-3.0742,-0.03516 -7.9414,-0.75781 -15.207,-0.75781l-0.29297,0c-12.941,0 -28.055,-14.656 -28.945,-19.219c-0.81641,-4.418 -8.8984,-114.26 -14.012,-184.94c27.02,17.926 51.711,21.797 67.312,21.797c6.1211,0 10.812,-0.45313 13.738,-0.93359c0.42578,4.457 1.5508,7.918 3.3711,10.445c0.64453,0.89062 1.3711,1.6953 2.1797,2.3672l-16.238,11.75c-10.375,0.30078 -24.297,5.1797 -33.988,27.66c-14.656,34.008 -9.4023,49.41 -1.4453,72.711l1.3594,4.0039c3.1992,9.4531 9.7617,16.594 16.961,22.496c-0.24219,4.4961 -0.37109,17.539 5.207,32.621l0.00007,-0.0007zm26.359,-24.062c-3.8984,-16.727 7.4531,-36.641 18.395,-53.996c12.246,-19.41 30.391,-26.324 43.293,-26.324c4.418,0 8.3672,0.83594 11.129,2.3594c9.1328,5.0234 -1.0039,24.164 -1.1016,24.359l-1.5625,2.8633l3.0625,1.1133c6.1602,2.2383 10.16,6.8945 10.707,12.461c0.47656,4.8594 -1.793,9.4453 -5.9297,11.949c-4.082,2.4766 -8.5391,6.7031 -9.2891,10.574c-0.37891,1.9727 0.25391,3.3359 0.81641,4.082c0.99219,1.7422 1.0938,11.688 -2.4375,15.445c-0.68359,0.72266 -1.5977,2.0391 -2.7383,3.7227c-4.5859,6.7656 -13.121,19.359 -27.57,19.359c-5.9297,0 -12.422,-2.1406 -19.281,-6.3516c-9.7812,-6.0234 -15.508,-13.09 -17.492,-21.617l-0.00121,0.0009zm202.62,93.273c-19.859,10.078 -38.129,8.7812 -59.297,7.3008c-6.5078,-0.46094 -13.238,-0.93359 -20.254,-1.0742c-25.809,-0.51953 -35.973,-8.5195 -50.035,-19.605l-4.5195,-3.5391c-12.414,-9.6055 -28.281,-32.57 -35.219,-43.094c1.1641,0.12891 2.3398,0.29688 3.4844,0.29688c11.457,0 19.68,-7.4023 25.344,-13.781c8.3711,11.094 40.098,48.328 83.797,48.328l0.90234,0c49.051,0 87.305,-40.621 97.652,-58.289c3.125,0.64844 6.1953,1.5 9.0312,1.5c5.1055,0 9.5312,-0.58203 12.438,-1.5391c5.6914,-1.8633 21.254,-6.8867 30.258,-22.629c0,0.02734 0.00391,0.11328 0.00391,0.14062c0.375,7.6172 -4.5938,14.387 -9.8633,21.52c-5.3711,7.2734 -11.145,15.113 -10.762,24.23c-2.5977,2.8242 -10.969,11.879 -18.312,19.227c-6.6562,6.6602 -26.945,26.949 -54.648,41.008l-0.00105,-0.0009zm165.83,-39.984c-2.4414,3.6641 -13.188,11.402 -28.105,13.57c-11.312,1.6406 -28.461,0.51953 -46.078,-14.164c-20.641,-17.199 -13.043,-27.492 -3.4219,-40.523c5.6211,-7.6055 11.43,-15.477 10.949,-25.094c-0.55469,-11.133 -3.2305,-18.367 -8.4336,-22.758c-6.3242,-5.3438 -16.289,-6.668 -34.434,-4.5195c-25.176,2.9688 -122.96,27.875 -144.56,33.426c0.23438,-2.3359 0.375,-5.4102 0.10547,-8.9414l205.28,-62.703c4.4023,2.6953 24.203,16.699 28.074,52.555c1.1523,10.668 -2.7031,17.254 -6.4414,23.613c-3.6719,6.2539 -7.4688,12.723 -4.0586,21.5c3.0508,7.8633 11.664,14.688 19.266,20.707c6.0469,4.7812 13.578,10.75 11.859,13.332l-0.00097,-0.0001z"/>
   <path id="svg_26" d="m448.36964,222.67457c4.8281,-0.82422 7.9258,-0.16797 9.1406,0.37891c-0.14453,0.14453 -0.35156,0.32031 -0.62891,0.51953c-13.492,9.9453 -23.605,29.754 -13.906,49.75c3.0625,6.3164 6.1836,11.434 9.1992,16.387c6.1836,10.152 11.523,18.922 13.082,33.707c2.0898,19.867 -34.906,29.52 -35.281,29.617l1.3789,5.4258c1.7188,-0.42969 42.066,-10.965 39.469,-35.629c-1.6914,-16.039 -7.3359,-25.301 -13.871,-36.035c-2.9453,-4.8398 -5.9922,-9.8398 -8.9375,-15.914c-9.5586,-19.707 3.7969,-36.613 12.191,-42.801c3.5781,-2.6367 3.457,-5.2344 3.0703,-6.5508c-0.82813,-2.8008 -4.0547,-4.5078 -9.0664,-4.8008c-8.7969,-0.50781 -27.562,3.8516 -36.203,24.012l5.1523,2.207c6.8672,-16.023 21.035,-19.57 25.211,-20.273l-0.00049,-0.00064z"/>
   <path id="svg_27" d="m521.00964,497.34457c-10.113,-2.5312 -28.887,-13.098 -27.531,-34.957c0.42188,-6.7383 1.3398,-12.516 2.2227,-18.109c1.9766,-12.41 3.6797,-23.129 -0.84375,-38.613c-6.9609,-23.812 -48.281,-18.223 -50.047,-17.977l0.78906,5.543c0.375,-0.0625 38.266,-5.207 43.887,14.004c4.168,14.273 2.5547,24.41 0.6875,36.16c-0.90625,5.7188 -1.8477,11.637 -2.2852,18.637c-1.3711,22.18 15.5,36.668 31.758,40.738c0.33594,0.08594 0.58203,0.16406 0.78516,0.24219c-0.91406,0.96484 -3.5234,2.7383 -8.3086,3.832c-4.1211,0.94141 -18.586,3.0352 -31.031,-9.1836l-3.9258,3.9922c9,8.8438 19.129,11.562 27.621,11.562c6.2656,0 11.637,-1.4883 14.992,-3.0977c4.5312,-2.1797 6.8672,-4.9766 6.5703,-7.8867c-0.14844,-1.3516 -1.0195,-3.7969 -5.3398,-4.8867l-0.00057,0.00031z"/>
   <path id="svg_28" d="m216.70964,140.83257c6.2383,0 11.504,-6.5742 11.504,-10.707c0,-4.082 -3.8633,-12.098 -12.789,-12.098c-8.4492,0 -12.383,7.2188 -12.383,12.098c-0.00391,5.6602 7.6445,10.707 13.668,10.707zm-1.2852,-17.203c5.7617,0 7.1914,5.6836 7.1914,6.4844c-0.05469,1.2148 -2.8438,5.1172 -5.9023,5.1172c-3.7188,0 -8.0742,-3.375 -8.0742,-5.1055c-0.00391,-2.2695 1.9922,-6.4961 6.7852,-6.4961l-0.0001,0z"/>
   <path id="svg_29" d="m222.98964,189.44457c0,5.5156 3.8203,13.281 12.305,13.281c8.293,0 11.305,-7.8242 11.305,-13.082c0,-4.7539 -4.2969,-13.48 -11.305,-13.48c-8.0781,0 -12.305,6.6797 -12.305,13.281zm12.309,-7.6836c3.0625,0 5.707,5.2812 5.707,7.8789c0,0.30859 -0.06641,7.4805 -5.707,7.4805c-5.0664,0 -6.7031,-5.1758 -6.7031,-7.6836c-0.00391,-0.30469 0.07422,-7.6758 6.7031,-7.6758z"/>
   <path id="svg_30" d="m355.12964,140.83257c6.0273,0 13.676,-5.0391 13.676,-10.707c0,-4.8789 -3.9375,-12.098 -12.383,-12.098c-8.9336,0 -12.797,8.0078 -12.797,12.098c0.00391,4.1289 5.2656,10.707 11.504,10.707zm1.293,-17.203c4.7891,0 6.7812,4.2266 6.7812,6.4961c0,1.7305 -4.3555,5.1055 -8.0742,5.1055c-3.0508,0 -5.8477,-3.8984 -5.9023,-5.1055c0,-0.8125 1.4297,-6.4961 7.1953,-6.4961z"/>
   <path id="svg_31" d="m346.51964,202.72457c8.4883,0 12.305,-7.7656 12.305,-13.281c0,-6.6016 -4.2266,-13.281 -12.305,-13.281c-7.0117,0 -11.305,8.7266 -11.305,13.48c-0.00391,5.2617 3.0039,13.082 11.305,13.082zm0,-20.961c6.6289,0 6.7031,7.3633 6.7031,7.6836c0,2.5078 -1.6406,7.6836 -6.7031,7.6836c-5.6406,0 -5.707,-7.1797 -5.707,-7.4805c0,-2.5977 2.6445,-7.8867 5.707,-7.8867z"/>
   <path id="svg_32" d="m429.73964,477.62457c0,-6.6016 -4.2266,-13.281 -12.305,-13.281c-7.0117,0 -11.305,8.7305 -11.305,13.48c0,5.2578 3.0078,13.082 11.305,13.082c8.4922,-0.00391 12.305,-7.7695 12.305,-13.281zm-12.301,7.6797c-5.6406,0 -5.707,-7.1719 -5.707,-7.4805c0,-2.5938 2.6445,-7.8789 5.707,-7.8789c6.6289,0 6.7031,7.3711 6.7031,7.6836c0,2.5 -1.6406,7.6758 -6.7031,7.6758z"/>
   <path id="svg_33" d="m226.91964,491.37457c-2.4297,0 -4.7617,0.78906 -6.9375,2.3477c-5.6992,4.082 -4.1055,13.676 -1.3398,17.539c2.0234,2.8281 6.0312,6.125 10.656,6.125c2.168,0 4.2344,-0.69531 6.1484,-2.0664c3.1484,-2.25 4.8984,-5.6211 4.9375,-9.4766c0.02734,-2.9414 -0.96875,-6.1133 -2.6641,-8.4844c-2.0703,-2.8984 -5.9961,-5.9844 -10.801,-5.9844l0.0005,0.0001zm5.2656,19.395c-0.95703,0.68359 -1.8984,1.0195 -2.8906,1.0195c-2.3359,0 -4.8008,-1.9648 -6.1094,-3.7852c-1.5117,-2.1094 -2.4414,-7.9414 0.05078,-9.7266c1.2031,-0.85547 2.4414,-1.293 3.6797,-1.293c2.5156,0 4.9492,1.8242 6.25,3.6406c0.79688,1.1094 1.6367,3.0508 1.6172,5.168c-0.01562,2.0742 -0.89062,3.75 -2.5977,4.9766l0.00002,0.0001z"/>
   <path id="svg_34" d="m273.22964,519.64457c-9.1602,0 -13.281,6.8438 -13.281,11.699c0,5.3984 3.0781,11.703 11.754,11.703c8.6875,0 14.016,-6.3555 14.016,-10.91c0,-5.0234 -3.3242,-12.492 -12.488,-12.492l-0.001,0zm-1.5273,17.797c-4.082,0 -6.1562,-2.0508 -6.1562,-6.1055c0,-1.2891 1.3047,-6.0977 7.6836,-6.0977c6.8086,0 6.8867,6.6133 6.8867,6.8867c0.00391,1.375 -2.8945,5.3164 -8.4141,5.3164l0,0.0001z"/>
   <path id="svg_35" d="m330.23964,521.86457c-1.7266,0 -3.5,0.39062 -5.2812,1.1602c-8.4102,3.6289 -9.4883,11.547 -7.5664,16c1.9727,4.5625 5.7344,7.293 10.074,7.293c1.7031,0 3.5,-0.40234 5.3555,-1.2031c3.4219,-1.4766 6.1836,-4.0273 7.7734,-7.1836c1.4766,-2.9414 1.7695,-6.0742 0.77734,-8.3789c-1.2383,-2.8594 -4.9648,-7.6875 -11.133,-7.6875l0.00036,-0.0001zm5.3477,13.547c-0.58203,1.1484 -1.9922,3.2695 -4.9883,4.5586c-1.1406,0.49219 -2.1992,0.74609 -3.1367,0.74609c-2.8281,0 -4.3047,-2.4531 -4.9336,-3.9102c-0.50781,-1.1797 -1.2148,-6.1133 4.6406,-8.6406c1.0703,-0.46484 2.1055,-0.69922 3.0625,-0.69922c3.2695,0 5.3477,2.8164 5.9883,4.3047c0.21875,0.48828 0.23047,1.9141 -0.63281,3.6406l0.00001,0.00003z"/>
   <path id="svg_36" d="m380.06964,501.42457c-3.0312,0 -5.9414,1.25 -8.4219,3.6055c-6.6406,6.3125 -4.918,14.113 -1.5664,17.629c1.4219,1.4961 4.4141,3.9922 8.4961,3.9922c2.8438,0 5.5664,-1.2148 8.0859,-3.6133c6.293,-5.9805 5.7773,-14.262 2.6445,-17.566c-1.8633,-1.9492 -5.2695,-4.0469 -9.2383,-4.0469l0.0001,-0.0005zm2.7266,17.559c-1.4453,1.3711 -2.8672,2.0664 -4.2266,2.0664c-2.0664,0 -3.793,-1.5742 -4.4336,-2.25c-0.88672,-0.92969 -3.2539,-5.3125 1.3711,-9.7109c1.4609,-1.3828 2.9531,-2.0625 4.5586,-2.0625c2.3516,0 4.3555,1.457 5.1758,2.3125c0.94141,0.99219 1.5586,5.8398 -2.4453,9.6445z"/>
  </g>
 </g>
</svg>