<svg width="640" height="640" xmlns="http://www.w3.org/2000/svg" version="1.1">

 <g>
  <title>Layer 1</title>
  <g id="svg_76">
   <path id="svg_25" d="m303.12141,331.96617c12.57,0.16797 26.375,11.883 26.512,12l5.4023,4.2344l0,-24.023l-14.621,0l-1.1133,6.6758c-4.7812,-2.4023 -10.398,-4.3867 -16.102,-4.4648c-14.836,-0.26953 -21.348,5.9961 -21.621,6.2617l3.8867,4.0273c0.04688,-0.04687 5.457,-5.0273 17.656,-4.7109l0.0003,-0.0005zm22.039,-2.3008l2.8242,0l0,6.4297c-1.0312,-0.73828 -2.207,-1.5391 -3.5,-2.3594l0.6758,-4.0703z"/>
   <path id="svg_26" d="m216.14141,302.63617c2.6641,-4.4727 8.0938,-8.7969 11.805,-10.395c4.9062,-2.1094 12.57,-16.051 14.801,-20.273l-4.9492,-2.6211c-4.6602,8.8086 -10.188,16.941 -12.062,17.746c-4.582,1.9727 -11,6.957 -14.402,12.672c-2.7227,4.5703 -8.6953,8.707 -12.27,11.176c-4.4961,3.1133 -14.844,11.387 -17.668,13.789l3.6289,4.2656c2.7656,-2.3594 12.859,-10.426 17.227,-13.453c5.1016,-3.5234 10.809,-7.7227 13.891,-12.906l-0.0017,-0.0005z"/>
   <path id="svg_27" d="m500.15141,363.37617l0.00391,0l9.9961,-32.453l-17.316,-3.0078l0,-12.285l-15.223,3.6836l-5.9297,-12.234l-10.652,11.266l-10.477,-12.562l-5.168,7.9844c-2.4531,-4.5195 -5.7891,-11.199 -6.2148,-13.328c-0.42578,-2.1289 -2.082,-4.8984 -5.0195,-9.6211c-2.4805,-4 -5.2852,-8.5352 -6.7148,-12.273c-2.7656,-7.2617 -4.1953,-16.023 -4.2109,-16.105l-2.9844,0.48047c31.293,-5.8242 55.586,-13.508 55.586,-22.148c0,-19.02 -72.594,-40.102 -72.594,-40.102l0,-43.617s-0.10547,-6.5391 5.7109,-4.3633c5.8203,2.1797 37.023,12.359 45.02,6.5391c7.9961,-5.8203 7.2461,-36.348 -31.289,-68.336c-38.527,-31.988 -55.988,-26.168 -63.262,-26.168c-7.2695,0 -34.176,18.898 -48.715,23.262c-14.539,4.3633 -38.535,10.176 -50.164,21.812c-11.633,11.633 -40.711,45.074 -40.711,90.871c0,0 -65.43,23.805 -65.43,40.41c0,3.3672 4.1328,4.6914 11.082,10.293l-13.973,0l3.6562,115.59c-1.875,0.99219 -3.5508,2.0664 -4.8828,3.5938c-5.9258,6.8203 -23.039,34.637 -23.039,50.227c0,15.098 30.105,39.297 34.641,42.855c0.74609,0.87891 3.0586,3.2969 5.8867,4.5859c0.35938,4.1992 1.1016,15.281 -0.14062,23.18c-1.7578,11.184 -2.1562,35.945 0,49.93c1.8047,11.715 5.1133,14.352 11.691,19.621c2.1211,1.7031 4.6719,3.7422 7.7617,6.5508c7.543,6.8711 15.52,8.1797 23.445,8.1797c2.4688,0 4.9336,-0.12891 7.375,-0.25781c3.9219,-0.20703 7.9648,-0.42578 12.039,-0.11719c10.074,0.72656 21.27,-0.45312 29.438,-1.3203c4.2734,-0.45312 7.9648,-0.84375 10.293,-0.84375c2.6836,0 4.5469,-0.66797 5.707,-2.0312c0.82812,-0.98047 1.0938,-2.0664 1.1133,-3.1211c1.5078,0.23047 3.3203,0.40234 5.4922,-0.53125c2.1523,-0.91797 5.4141,-3.0508 6.957,-4.082c2.3672,0.12891 8.5625,0.39062 13.082,-0.06641c0.91797,-0.09375 1.6953,-0.5 2.3906,-1.0312c2.6445,0.32031 8.6016,0.91797 16.375,0.91797c5.2852,0 11.406,-0.27344 17.879,-1.1016c7.3125,-0.94141 14.609,-2.75 21.207,-5.1016c6.3438,5.0508 17.887,12.039 26.414,12.988c9.8164,1.0938 30.895,1.8203 41.074,-5.0898c7.957,-5.3984 18.676,-15.848 22.98,-20.16c2.168,1.8633 4.7422,2.3867 8.7969,0.53125c5.9375,-2.6992 7.293,-15.434 8.3438,-30.547c0.17188,-2.4453 0.36328,-5.0898 0.55469,-6.4414c7.0664,-2.8828 11.301,-7.0117 14.719,-10.438c1.1797,-1.1992 2.3086,-2.3281 3.4844,-3.3281c6.0273,-5.0977 8.9648,-10.039 8.7305,-14.688c-0.14062,-2.7539 -1.3789,-5.2852 -3.6445,-7.5586c24.695,-19.641 14.508,-59.207 11.16,-69.867c7.2617,-3.1484 9.0703,-7.3867 10.137,-13.059c0.99609,-5.1875 -3.1719,-14.762 -12.469,-25.961l0.00112,-0.00548zm-48.859,-48.266l9.793,11.555l9.9844,-10.23l3.6289,9.2617l12.535,-3.0898l0,10.266l15.254,1.6914l-5.8359,18.027c0.24609,-2.7383 0.27344,-6.3398 -3.3203,-9.8711c-1.6875,-1.6562 -3.4492,-2.4961 -5.582,-2.4961c-2.5078,0 -4.8008,1.1484 -7.3125,2.3672c-3.4219,1.6523 -7.3086,3.5742 -12.453,2.9961c-5.2969,-0.57812 -6.3555,-3.0078 -7.8438,-6.3828c-1.3047,-2.9531 -2.9219,-6.6289 -7.8906,-7.5703c-9.3516,-1.7461 -10.465,7.6836 -10.922,10.98c-0.02344,0.17969 -0.03906,0.34766 -0.0625,0.5c-0.46484,0.34766 -1.1602,0.86328 -2.0273,1.5117c-0.05078,0.03906 -0.10156,0.07422 -0.15234,0.11328l0.14063,-19.164l3.1992,3.0234l8.86711,-13.48868zm-41.395,58.234c0.11719,0.26172 1.8477,4.2188 5.0352,9.1328c-4.3945,3.7031 -14.812,12.918 -19.309,20.805c-5.5508,9.7344 -10.473,23.828 -8.1719,31.758c0.41016,1.4062 1.1992,2.9727 2.1055,4.5625c-14.035,2.2188 -59.68,9.2891 -78.863,10.332c-22.328,1.1133 -67.949,-16.441 -68.41,-16.613l-2.0273,5.2188c1.8555,0.72266 44.184,17.051 68.215,17.051c0.86719,0 1.7148,-0.02344 2.5273,-0.06641c21.125,-1.1406 71.871,-9.1719 81.934,-10.785c0.45312,0.61719 0.91406,1.2148 1.3789,1.8086c-3.1602,0.62891 -8.1094,1.7031 -15.074,3.2266c-13.797,3.0234 -30.973,6.7812 -38.332,7.6484c-11.73,1.3711 -31.121,2.2109 -47.168,0.00391c-15.539,-2.1406 -51.406,-11.316 -51.766,-11.414l-0.45312,1.7578c-2.2344,-7.8125 -4.8203,-20.641 -5.6445,-27.41l-0.07813,-0.64453c-1.0859,-8.9727 -1.457,-10.695 -8.1406,-19.137c-5.5625,-7.0234 -14.719,-13.441 -18.121,-15.703c0.06641,-1.5742 0.05469,-3.168 -0.21875,-4.8047c-0.25781,-1.5664 -0.46484,-2.957 -0.65625,-4.2109c-0.89062,-5.9531 -1.3789,-9.2344 -4.8164,-13.598c-1.8438,-2.3242 -4.8281,-3.4492 -9.1328,-3.4492c-3.8867,0 -8.2539,0.92578 -11.949,1.7539l-2.7031,-37.477c1.8086,-2.2578 5.5117,-7.0898 6.7578,-10.336c0.84375,-2.207 3.5,-5.5508 6.5781,-9.418c1.4883,-1.8711 3.0859,-3.8789 4.6797,-6.0156c2.2188,-2.957 5.6211,-4.7383 9.5742,-6.793c4.1328,-2.1562 8.8203,-4.5977 13.383,-8.9727c8.8984,-8.5273 11.426,-12.738 11.523,-12.918l-2.3867,-1.418c9.6055,1.5469 19.441,2.8906 29.094,3.9688c-3.1602,3.3672 -10.969,11.727 -16.102,17.578c-5.9766,6.8086 -10.887,11.52 -19.707,16.879c-9.375,5.6953 -15.383,11.273 -18.777,14.941c-0.61719,0.66797 -1.3789,0.75 -3.0977,0.78906c-2.7109,0.06641 -7.2461,0.17188 -8.5117,7.2734c-1.3984,7.8633 -2.8047,12.32 -2.8164,12.363l5.332,1.707c0.0625,-0.19141 1.5273,-4.8164 3,-13.086c0.46484,-2.5977 0.76562,-2.6055 3.1289,-2.6641c1.9102,-0.04297 4.7891,-0.11719 7.0742,-2.5859c3.1484,-3.4102 8.7539,-8.6016 17.574,-13.961c9.4375,-5.7305 14.66,-10.734 21.004,-17.969c6.4336,-7.3359 17.305,-18.855 17.414,-18.969l-2.0391,-1.9258c5.1133,0.54297 10.152,1.0117 15.055,1.3945c-4.2344,3.0312 -15.578,11.418 -18.266,16.301c-1.4609,2.6484 -6.5352,6.0273 -11.008,9.0039c-3.1367,2.0898 -6.3789,4.2461 -8.7539,6.3633c-3.4883,3.0977 -4.7266,5.6016 -5.8242,7.8164c-0.90234,1.8203 -1.6797,3.3867 -3.7461,5.4609c-1.0703,1.0703 -2.2109,2.2734 -3.3828,3.5156c-3.8984,4.1211 -8.7539,9.2578 -11.93,9.9219c-5.5547,1.1641 -14,7.582 -14.945,8.3047l3.4141,4.4414c0.63672,-0.49219 1.6445,-1.2266 2.8242,-2.0312c3.6328,9.4453 13.707,34.707 19.719,40.477c1.7578,1.6914 3.3984,4.8789 5.4766,8.9219c4.9844,9.6836 12.512,24.328 32.176,39.445c9.3359,7.1797 16.262,10.668 21.285,10.668c1.6289,0 3.0625,-0.36328 4.3125,-1.0977c1.3477,-0.78906 2.2578,-1.9258 2.8828,-3.1758c4.6875,4.2266 12.098,7.1914 23.027,7.1914c6.5703,0 11.414,-1.7461 14.391,-5.1797c0.02735,-0.02734 0.03907,-0.0625 0.06641,-0.08984c0.35938,0.28125 0.6875,0.58203 1.1602,0.77344c0.62109,0.25391 1.3398,0.42578 2.207,0.42578c3.7031,0 10.078,-3.2656 23.324,-17.852l9.1055,-10.008c17.035,-18.703 22.176,-24.348 25.633,-30.699c2.8125,-5.1797 8.5078,-15.176 11.289,-20.047c2.4961,1.9258 4.7617,3.5 6.6523,4.6016l2.8125,-4.8438c-3.1484,-1.8242 -7.6328,-5.2539 -12.645,-9.6445c-4.0977,-3.5938 -8.125,-10.449 -12.777,-18.387c-1.5195,-2.5859 -3.125,-5.3203 -4.8477,-8.1484l-0.88672,-1.4609c-7.4609,-12.273 -17.668,-29.086 -33.859,-35.902c-11.562,-4.8672 -19.578,-11.375 -22.809,-14.262c6.7891,-0.29688 14.094,-0.75 21.711,-1.3438l-1.8047,2.1445c0.18359,0.15625 18.754,15.758 25.555,22.703c3.0391,3.1094 4.0938,5.4414 5.4336,8.3984c1.5117,3.3438 3.2188,7.1328 7.9805,12.594c8.5469,9.8008 8.5469,9.8008 13.5,18.301c4.7891,8.2148 6.9336,17.965 6.9492,18.066l5.4805,-1.1797c-0.09375,-0.42969 -2.3398,-10.695 -7.5938,-19.707c-5.168,-8.875 -5.2969,-9.0508 -14.117,-19.156c-4.2188,-4.832 -5.6836,-8.0742 -7.1016,-11.211c-1.4375,-3.1875 -2.793,-6.1992 -6.5312,-10.02c-5.6562,-5.7695 -18.633,-16.867 -23.801,-21.246c5.1445,-0.42578 10.41,-0.91797 15.734,-1.4688l-1.6406,2.2734c0.14062,0.10547 14.52,10.617 18.555,23.25c2.7383,8.5898 8.9414,15.887 13.922,21.75c3.1797,3.7422 6.1875,7.2812 7.2109,9.9453c1.3477,3.5156 3,6.0156 4.457,8.2266c1.8203,2.7617 3.3945,5.1523 4.1211,9.1211c1.6055,8.7266 6.4688,13.266 6.6758,13.453l3.8008,-4.1094c-0.03906,-0.03516 -3.7188,-3.5742 -4.9688,-10.359c-0.94141,-5.0859 -2.9844,-8.1875 -4.9609,-11.188c-1.3594,-2.0625 -2.7734,-4.1992 -3.9023,-7.1523c-1.3672,-3.5508 -4.5234,-7.2617 -8.1719,-11.559c-4.9062,-5.7695 -10.461,-12.305 -12.859,-19.828c-3.5742,-11.184 -13.641,-20.441 -18.25,-24.238c4.2266,-0.45312 8.4844,-0.95312 12.73,-1.4766l-2.418,1.3906c0.08594,0.14453 8.6133,15.082 11.43,21.59c1.9883,4.6016 7.3984,11.133 11.742,16.375c2.2773,2.7539 4.4336,5.3555 5.1289,6.5391c2.0625,3.5391 7.0547,15.469 7.1523,15.691l7.2695,15.547l5.0742,-2.375l-7.2227,-15.445c-0.20703,-0.50391 -5.1875,-12.387 -7.4297,-16.238c-0.92578,-1.5859 -3.0117,-4.1055 -5.6562,-7.2969c-3.9023,-4.7031 -9.2383,-11.148 -10.914,-15.02c-2.5352,-5.8672 -9.1406,-17.625 -11.137,-21.141c2.8711,-0.37109 5.7305,-0.75 8.5742,-1.1484l-2.2969,1.625c0.05469,0.07812 5.7969,8.2422 9.6211,15.941c3.9141,7.8867 12.125,21.273 14.645,23.883c1.7422,1.8047 5.2344,7.8008 6.6758,11.465c1.457,3.6953 6.5586,16.09 6.5586,16.09l4.7656,-1.9648l-0.10547,14.688c-10.91,8.2812 -21.086,16.762 -23.527,22.125l-0.51563,1.125l0.49876,1.15809zm-204.28,82.219c-1.082,-1.5352 -3.5352,-5.2734 -4.2734,-7.6562c-0.60547,-1.9648 -0.33594,-8.707 0.0625,-13.227c0.17969,-0.32422 0.36328,-0.64844 0.54688,-1.0039c0.49219,-0.92969 1.0586,-2.0039 2.0117,-3.3984c0.45312,-0.66797 0.78516,-1.1797 1.1875,-1.7812c0.18359,2.0898 0.44141,4.5039 0.83594,7.293c1.293,9.1914 3.5117,17.395 3.6914,18.008l0.22266,0.58984c-0.42969,0.12891 -0.81641,0.27344 -1.2656,0.40234c-0.98047,0.27344 -1.9961,0.53125 -3.0195,0.77344l-0.00008,0.00008zm9.582,-2.9844l-0.20312,-0.51562c-0.02344,-0.08594 -2.2188,-8.9141 -3.4648,-17.742c-1.2305,-8.7578 -1.1719,-14.945 -1.1719,-14.945l-0.33984,0c0.72656,0 1.4219,-1.8945 2.1328,-3.3047c1.1211,-2.2383 1.8555,-4.8789 0.98438,-8.2695c0.25781,0.24219 0.46484,0.63281 0.73438,0.88672c3.2031,2.9609 6.5117,6.1094 6.2812,11.82c-0.14062,3.3867 -0.91406,7.207 -1.6562,10.859c-1.1797,5.7617 -2.1992,10.77 -0.71094,14.113c0.96484,2.1602 1.5742,3.9609 1.9531,5.1914c-1.4102,0.64453 -2.9141,1.2812 -4.5391,1.9062l0.00004,0.0005zm9.582,-4.4609c-0.4375,-1.332 -1.0234,-2.9609 -1.8828,-4.8945c-0.76172,-1.7148 0.21875,-6.4844 1.0742,-10.695c0.75781,-3.6836 1.6133,-7.8633 1.7695,-11.711c0.33984,-8.293 -4.7227,-12.977 -8.0703,-16.078c-0.74609,-0.68359 -1.4375,-1.3203 -2.0234,-1.9609l-3.3438,3.0625c-0.78516,-1.6914 -1.9609,-3.4492 -3.7578,-5.2656c-1.3008,-1.3086 -0.69922,-4.5039 0,-8.1914c0.07422,-0.39844 0.14453,-0.82422 0.22266,-1.2305c4.0078,2.8438 10.449,7.7891 14.5,12.902c5.8984,7.4414 5.9766,8.1133 6.9727,16.336l0.07812,0.64453c0.58984,4.8555 2.4453,15.047 4.543,23.469l-1.8125,-0.39844l-1.3672,-0.96875c-0.5,0.69922 -2.875,2.6875 -6.9023,4.9805l-0.00008,-0.00044zm-46.859,-154.59l-0.62109,-8.5898l2.3906,-0.39844c-0.46094,-2.7383 3.7539,-7.2109 6.0156,-9.6133l0.54297,-0.57812c3.2266,-3.457 5.0352,-12.68 5.4375,-14.902c3.4219,0.875 6.9961,1.7188 10.703,2.5352c-5.5117,3.1406 -12.258,7.875 -12.258,12.234c0,2.0547 -1.6016,6.5195 -2.6602,9.4648c-0.8125,2.2617 -1.3281,3.7188 -1.5586,4.793c-0.41406,0.23438 -1.0195,0.54688 -1.5,0.79688c-1.8867,0.96875 -4.4062,2.2852 -6.4922,4.2578l0.00042,-0.00002zm143.57,-14.391l-5.2031,0.86719c0.02734,0.18359 0.77344,4.6016 2.2695,9.4531c1.0117,3.2891 3.2773,7.207 5.2695,10.668c1.0352,1.7969 1.9727,3.4062 2.4805,4.5469c0.37891,0.86328 0.32031,2.3867 -0.46484,3.3555c-0.70703,0.875 -1.9492,1.1367 -3.668,0.76562c-2.9805,-0.62891 -3.7852,-2.543 -4.1758,-4.3281l-0.59766,-2.5938l-2.2734,0.01563l-2.2695,0.46484l-0.54297,2.07029c-0.22266,0.85548 -2.6328,4.30471 -9.6133,4.30471c-4.543,0 -6.2266,-2.25 -7.7188,-4.2383c-0.98438,-1.3203 -2.0117,-2.6875 -3.8125,-2.99221c-2.3672,-0.39062 -4.2578,1.21481 -6.0742,2.7734c-1.1641,0.99609 -2.4766,2.1211 -3.4961,2.3359c-0.82422,0.16406 -3.707,-1.1719 -4.5039,-2.9609c-0.16406,-0.37109 -0.41016,-0.92577 0.83594,-1.9336c6.1953,-5.0352 12.164,-19.48 12.824,-21.117l-5.1914,-2.1016c-1.6406,4.0586 -6.8555,15.367 -11.168,18.871c-2.9336,2.3867 -3.8086,5.6562 -2.3281,8.7461c1.7969,3.7734 7.1055,6.7188 10.672,5.9766c2.4258,-0.50781 4.4023,-2.20699 5.9922,-3.56639c0.44922,-0.38673 1.0586,-0.90625 1.3477,-1.22661c0.14063,0.17969 0.28516,0.375 0.41406,0.54688c1.6953,2.2695 4.8555,6.4844 12.203,6.4844c5.5547,0 9.4766,-1.7656 11.938,-3.9141c1.8086,2.375 4.2891,3.4141 6.3828,3.8516c0.93359,0.19531 1.7852,0.28125 2.5664,0.28125c3.5664,0 5.6211,-1.7852 6.6094,-3.0078c2.0117,-2.48829 2.5195,-6.25 1.2305,-9.1523c-0.56641,-1.2695 -1.5898,-3.0625 -2.75,-5.0742c-1.7539,-3.0391 -3.9414,-6.8359 -4.7656,-9.5156c-1.1484,-3.7305 -1.8242,-7.2344 -2.0273,-8.3398c4.2109,3.5391 11.922,9.2305 22.613,13.73c9.9062,4.168 17.512,12.898 23.613,21.719l-4.8789,18.457c-1.2305,4.6406 -4.418,7.8164 -10.668,12.785c-5.5898,4.4531 -13.844,14.301 -19.305,20.82l-2.8906,3.4258c-1.3203,1.5469 -2.4531,3.8516 -3.7461,6.5078c-3.5938,7.3516 -8.0625,16.504 -18.844,16.504c-11.277,0 -19.266,-20.215 -23.102,-29.934c-1.4062,-3.5664 -2.1797,-5.4766 -2.9297,-6.5898c-0.78516,-1.1641 -1.4766,-3.3047 -2.2852,-5.7734c-1.6797,-5.1641 -3.9805,-12.246 -9.6875,-17.949c-6.3945,-6.3945 -14.066,-25.918 -16.199,-31.562c4.7305,-3.1797 8.9922,-6.2617 10.859,-9.6484c1.8867,-3.4219 12.066,-11.301 18.047,-15.461l-2.3477,-3.3672c9.3867,0.6875 18.238,1.0703 26.039,1.0703c4.3672,0 9.2188,-0.10547 14.371,-0.30078l-2.3242,2.25c0.13672,0.16016 1.3203,1.3281 3.2734,3l0.00147,0.00008zm-35.168,156.51c-0.69922,0.42188 -4.9375,1.9023 -19.359,-9.1797c-18.672,-14.359 -25.855,-28.332 -30.609,-37.57c-2.3203,-4.5039 -4.1484,-8.0547 -6.5781,-10.387c-4.3789,-4.207 -13.301,-25.133 -18.77,-39.496c1.8477,-1.043 3.6562,-1.8945 5.0273,-2.1836c4.8945,-1.0234 9.957,-6.3828 14.852,-11.559c1.1367,-1.1992 2.2344,-2.3633 3.2773,-3.3984c2.7227,-2.7148 3.832,-4.957 4.8047,-6.9336c0.99219,-2.0039 1.8555,-3.7422 4.5234,-6.1133c1.4219,-1.2656 3.3203,-2.6211 5.3203,-3.9805c2.7539,7.168 10.219,25.508 17.02,32.301c4.7539,4.7617 6.7383,10.84 8.3203,15.727c0.93359,2.8711 1.7422,5.3555 2.9688,7.168c0.44141,0.66016 1.418,3.1289 2.3633,5.5156c3.875,9.8047 10.562,26.656 21.508,31.859c-1.6289,0.53125 -3.1797,1.4766 -4.6758,2.9727c-0.17188,0.17969 -1.8359,1.9531 -3.8203,4.6367c-4.2656,-2.3516 -14.078,-8.1523 -20.453,-15.059c-11.703,-12.684 -19.707,-21.969 -23.777,-27.602l-4.543,3.2812c4.1992,5.8125 12.348,15.277 24.199,28.117c6.7812,7.3477 16.766,13.352 21.504,15.977c-2.1914,3.7852 -4.0703,8.2617 -4.0703,12.66c0,2.9844 0.6875,6.1094 2.1836,9.043c0.10156,1.0781 -0.00391,3.5 -1.2148,4.2031l-0.0017,0.0008zm4.6367,-13.25c0,-8.2031 9.3086,-18.047 9.3594,-18.098c1.5859,-1.5859 2.6953,-1.7969 3.5664,-1.7969c1.1797,0 2.5703,0.46094 4.1836,0.99219c2.1992,0.72656 4.9375,1.6289 8.2148,1.6289c5.1367,0 10.258,13.957 10.258,16.895c0,0.51953 0.10156,1.3203 0.24219,2.3203c0.4375,3.0625 1.1641,8.1875 -1.5508,11.316c-1.8711,2.1562 -5.293,3.2461 -10.164,3.2461c-17.781,-0.00391 -24.109,-8.5234 -24.109,-16.504l-0.00059,0.00041zm41.363,1.1445c-0.09375,-0.66016 -0.18359,-1.1875 -0.18359,-1.5273c0,-1.7969 -1.3398,-7.2539 -3.9141,-12.344c3.3281,-2.1992 6.4023,-5.3945 9.6055,-8.7852c3.9258,-4.1562 7.9922,-8.457 12.48,-10.617c1.8828,-0.90234 3.4453,-1.5352 4.7812,-2.0781c6.1953,-2.5195 8.5586,-3.9492 12.797,-14.953l-5.2305,-2.0117c-3.5859,9.2969 -4.7539,9.7734 -9.6758,11.777c-1.4297,0.58203 -3.0977,1.2617 -5.1016,2.2227c-5.4258,2.6055 -9.8438,7.2852 -14.117,11.809c-2.9414,3.1094 -5.7383,6.0195 -8.5,7.8789c-2.3984,-3.1133 -5.3867,-5.3984 -8.9766,-5.3984c-1.7656,0 -3.3438,-0.41016 -4.8711,-0.875c11.621,-1.8359 16.777,-12.152 20.254,-19.266c1.082,-2.2188 2.1094,-4.3164 2.9688,-5.3242l2.9219,-3.4727c4.9961,-5.957 13.352,-15.938 18.496,-20.031c7.0859,-5.6289 10.977,-9.6055 12.602,-15.742l3.6016,-13.625c1.2266,1.9492 2.4062,3.8633 3.5,5.6602l0.89062,1.4688c1.707,2.8047 3.2969,5.5117 4.8008,8.0742c5.1016,8.6953 9.1406,15.566 13.914,19.758c0.85156,0.74609 1.6523,1.4102 2.4648,2.1016c-2.5703,4.4961 -8.8086,15.43 -11.805,20.945c-3.1289,5.7617 -8.1641,11.297 -24.852,29.613l-9.1094,10.012c-15.176,16.711 -19.152,16.023 -19.113,16.121c-0.07422,-0.10547 -0.14062,-0.42578 -0.14062,-0.64453l-0.70703,-0.01563c1.1367,-3.9844 0.58594,-8.1328 0.21875,-10.73l0.00037,-0.00064zm89.895,-143c1.6133,4.2383 4.582,9.0156 7.2031,13.234c1.8047,2.9062 4.0547,6.5234 4.3008,7.7617c0.77344,3.8633 6.4336,14.211 7.5664,16.246l2.4258,-1.3438l-2.2891,3.4844l-4.1992,-3.9648l1.6289,-1.0195c-2.0625,-3.3086 -4.4453,-7.5391 -4.6719,-8.2227c0,-3.125 -7.582,-15.191 -12.078,-18.391c-1.6367,-1.1641 -2.5039,-2.8789 -3.4219,-4.6992c-1.0742,-2.1406 -2.3008,-4.5703 -4.7539,-5.8086c-0.48828,-0.53906 -1.2422,-2.6992 -0.83594,-11.105c0.05469,-1.1094 0.08984,-1.8984 -0.01563,-2.5273c1.5625,-0.26953 3.1211,-0.53906 4.6523,-0.8125c0.08985,0.64453 1.5508,9.4766 4.4883,17.168l-0.00003,0.0003zm-11.926,-15.848l-0.28125,0.03516c0.08984,-0.01563 0.18359,-0.02735 0.27344,-0.04297l0.00781,0.00781zm-2.7578,0.43359c0,0.28125 -0.02344,0.72656 -0.05078,1.3398c-0.33984,7.0742 -0.33594,14.145 3.7031,16.234c0.94531,0.48828 1.5586,1.6367 2.4805,3.4648c1.0703,2.1289 2.4141,4.7812 5.1797,6.7461c3.5625,2.5312 9.2852,12.375 9.7227,13.82c0,0.67578 0.04297,2.2969 5.1016,10.512l-0.11328,15.887c-1.1875,-2.8906 -4.9062,-11.961 -6.125,-15.043c-1.5859,-4.0391 -5.3633,-10.723 -7.8555,-13.301c-1.7812,-1.8477 -9.6445,-14.41 -13.652,-22.484c-3.2148,-6.4609 -7.5078,-12.945 -9.2578,-15.508c3.6719,-0.53125 7.2891,-1.0938 10.867,-1.668l-0.00024,0.0003zm-60.355,-164.8c0.91797,-2.5195 2.3516,-4.0898 4.2578,-4.6523c4.0469,-1.2031 8.7539,2.3398 15.875,7.6953c1.6445,1.2383 3.4102,2.5703 5.2969,3.9297c0.97266,0.70703 1.1992,2.0703 0.48828,3.0469c-0.71094,0.97266 -2.0703,1.1914 -3.0469,0.48828c-1.9102,-1.3828 -3.6953,-2.7266 -5.3633,-3.9805c-4.957,-3.7305 -10.07,-7.5703 -12.012,-7c-0.63281,0.18359 -1.1094,1.1719 -1.3945,1.9609c-1.293,4.7539 23.91,28.992 33.398,38.113c6.2734,6.0352 9.5977,9.25 10.68,10.762c0.69922,0.98047 0.46875,2.3398 -0.50781,3.0391c-0.38672,0.27344 -0.82812,0.41016 -1.2695,0.41016c-0.67578,0 -1.3477,-0.32031 -1.7734,-0.91406c-0.89062,-1.25 -5.1797,-5.375 -10.152,-10.152c-24.586,-23.633 -36.664,-36.738 -34.477,-42.746l0.00043,-0.00048zm-77.195,22.281c35.879,0 112.84,52.227 116.09,54.449c0.99219,0.67578 1.25,2.0391 0.57031,3.0312c-0.42188,0.62109 -1.1094,0.95312 -1.8047,0.95312c-0.42578,0 -0.85156,-0.125 -1.2305,-0.37891c-0.78516,-0.53906 -79.09,-53.688 -113.64,-53.688c-8.3711,0 -12.145,1.5977 -12.168,3.1758c-0.09375,5.6172 21.773,19.102 37.684,19.633c1.2031,0.03906 2.1445,1.0469 2.1055,2.25c-0.03906,1.2109 -1.0742,2.25 -2.25,2.1055c-15.688,-0.52734 -42.066,-14.285 -41.906,-24.062c0.09375,-4.9531 5.6562,-7.4688 16.543,-7.4688l0.00639,0.00009zm-47.148,81.168c0.375,-1.1484 1.6016,-1.7734 2.75,-1.3984c0.46484,0.15234 46.637,15.012 82.93,15.012c36.289,0 81.008,-14.855 81.457,-15.008c1.1367,-0.375 2.3789,0.23438 2.7617,1.3711c0.37891,1.1406 -0.23047,2.3789 -1.3711,2.7617c-0.45312,0.15234 -45.836,15.23 -82.848,15.23c-36.992,0 -83.805,-15.074 -84.273,-15.227c-1.1484,-0.37109 -1.7734,-1.5938 -1.4062,-2.7422l-0.0004,0.0008zm4.2539,62.949c-1.1406,1.5586 -3.9922,5.1055 -9.9297,10.797c-3.9805,3.8203 -8.1094,5.9648 -12.098,8.043c-4.3672,2.2734 -8.4883,4.4258 -11.469,8.3984c-1.5625,2.0898 -3.125,4.0547 -4.582,5.8867c-3.5,4.4062 -6.2656,7.8867 -7.4258,10.891c-0.38672,1.0078 -1.2031,2.3672 -2.1523,3.7812l-0.95312,-13.188l1.2383,0.11719c0.33984,-3.6523 4.3281,-5.6992 7.2422,-7.1953c2.3594,-1.2109 4.4023,-2.2578 4.3945,-4.4805c0.07422,-0.57031 0.82422,-2.6719 1.3789,-4.1992c1.3984,-3.9023 2.9922,-8.332 2.9805,-11.238c0.41406,-1.6016 6.1953,-5.875 12.137,-8.9727l-1.3008,-2.4883c6.5781,1.3828 13.477,2.6719 20.539,3.8477l0.00032,-0.00019zm-38.086,-7.9688l-2.8008,-0.49219c-0.71094,4.0469 -2.4375,10.527 -4.0469,12.258l-0.52734,0.55859c-1.5273,1.625 -3.3984,3.6445 -4.9102,5.8672l-1.6133,-22.359c4.168,1.4336 8.8398,2.8281 13.898,4.168l0.00054,-0.0006zm-31.719,-1.7891l12.336,0l7.6094,105c-1.0117,0.14453 -2.1094,0.12891 -3.3047,0.27344c-4.0273,0.48828 -8.8125,1.3164 -13.234,2.6133l-3.4067,-107.88674zm8.7422,202.86l-0.46094,-0.45312c-9.1016,-7.1133 -32.727,-27.91 -32.727,-38.668c0,-13.031 15.418,-39.43 21.668,-46.625c3.8594,-4.4453 13.242,-5.582 20.094,-6.418c2.4141,-0.29688 4.5586,-0.55859 6.1875,-0.90625l2.2734,-0.50781c3.5938,-0.8125 8.0625,-1.8203 11.648,-1.8203c1.6875,0 3.8711,0.23047 4.7422,1.3203c2.5156,3.1797 2.8516,5.4609 3.6719,10.949c0.16797,1.1484 0.37109,2.457 0.59766,3.875c-3.6289,0.53906 -10.641,1.668 -15.539,3.0781c-6.6406,1.9141 -12.137,4.1094 -12.363,4.207l2.082,5.1953c0.05469,-0.02344 5.4805,-2.1914 11.84,-4.0195c4.2656,-1.2305 10.484,-2.2617 14.125,-2.8164c-0.17969,1.7188 -0.50391,3.4492 -0.82422,5.1445c-0.42969,2.2969 -0.86328,4.625 -0.83594,6.8086c-11.184,3.375 -20.156,7.7969 -20.539,7.9922l2.4922,5.0195c0.08984,-0.05078 8.9219,-4.3945 19.621,-7.6328c0.24219,0.33594 0.46875,0.67188 0.77734,0.98047c4.4297,4.4727 3.5938,7.6953 2.5742,9.7227c-2.0664,4.1289 -3.7422,6.8945 -7.8047,12.879c-1.0977,1.6133 -1.7578,2.8633 -2.3281,3.9375c-1.3398,2.5273 -2.0117,3.7969 -9.4688,8.2383c-4.2227,2.5078 -7.6875,3.9141 -10.465,5.0391c-4.4531,1.8047 -7.9727,3.2266 -9.3477,7.6172c-1.0195,3.2383 -0.18359,7 0.48828,10.031c-0.85547,-0.70703 -1.6484,-1.5117 -2.1797,-2.168l0.00042,0.00041zm134.94,97.961c-1.6797,0.14453 -3.6055,0.18359 -5.4414,0.17969l0.20703,-0.12891l-5.4414,-8.707c-0.32031,-0.37109 -7.875,-9.1953 -14.234,-15.035c-3.1875,-2.918 -4.9492,-5.9453 -7.6289,-10.527c-2.2109,-3.793 -4.9609,-8.5 -9.4805,-14.773c-6.5234,-9.043 -9.8047,-10.605 -15.52,-12.773c-2.8516,-1.082 -6.082,-2.3125 -11.02,-5.3359c-12.27,-7.5312 -15.434,-14.777 -17.137,-18.672l-0.4375,-0.98047l-5.0898,2.3281l0.39062,0.88672c1.8086,4.1367 5.5664,12.758 19.336,21.203c5.3828,3.3047 9.0273,4.6914 11.957,5.8086c4.7422,1.7969 7.1172,2.7031 12.957,10.809c4.3633,6.0586 7.0391,10.641 9.1914,14.324c2.8281,4.8398 4.8711,8.3398 8.6758,11.828c6.0273,5.5273 13.473,14.211 13.52,14.211l3.3203,5.3438c-0.42969,-0.02344 -0.74609,-0.04297 -0.75781,-0.04297l-0.97266,-0.06641l-0.80469,0.55859c-1.25,0.86328 -4.9062,3.2891 -6.7773,4.0898c-0.88672,0.375 -1.5625,0.29297 -2.8945,0.06641c-0.46484,-0.07812 -0.96484,-0.10156 -1.4453,-0.15234c-0.98438,-1.0078 -2.5312,-2.8125 -3.1406,-4.5039c-0.93359,-2.6328 -3.8125,-6.2617 -8.1641,-11.762c-1.8633,-2.3594 -3.9688,-5.0195 -6.2031,-7.9648c-3.1602,-4.168 -5.3125,-6.6406 -7.5977,-9.25c-2.9414,-3.3711 -5.9766,-6.8477 -11.711,-14.527c-9.6211,-12.898 -12.375,-15.152 -15.863,-18.016l-0.96484,-0.79687c-3.4844,-2.9062 -15.527,-16.129 -18.938,-22.496l-4.9375,2.6484c3.7031,6.8945 16.031,20.602 20.293,24.148l0.99609,0.81641c3.1914,2.6211 5.7109,4.6914 14.926,17.035c5.8594,7.8516 9.1094,11.574 11.977,14.863c2.2188,2.5352 4.3125,4.9375 7.3516,8.9531c2.2617,2.9805 4.3906,5.668 6.2773,8.0547c3.5742,4.5117 6.6523,8.4102 7.2852,10.164c0.82422,2.3125 2.4062,4.3281 3.6445,5.6953c-0.03906,0.62891 0.05078,1.2227 0.12891,1.6953c0.01563,0.125 0.04297,0.29688 0.06641,0.44922c-0.24609,0.05078 -0.63672,0.09375 -1.2109,0.09375c-2.625,0 -6.4531,0.40234 -10.879,0.875c-8.3984,0.90234 -18.859,2.0117 -28.441,1.3047c-4.3789,-0.3125 -8.5664,-0.09375 -12.629,0.10547c-0.375,-1.1758 -0.69531,-2.4141 -0.69531,-3.125c0,-3.6328 -4.1836,-8.8984 -7.9414,-11.344c-1.5391,-1.0078 -6.5117,-8.293 -9.8008,-13.125c-3.1094,-4.5547 -6.0352,-8.8555 -8.0352,-11.133c-2.2461,-2.5703 -2.6211,-11.73 -2.8945,-18.414c-0.18359,-4.4531 -0.35156,-8.6641 -0.97266,-11.531c-0.40234,-1.8555 -0.72266,-3.7695 -1.0469,-5.6992c-0.99609,-5.9688 -2.0273,-12.141 -5.4609,-17.383l-4.6875,3.0625c2.7891,4.2617 3.7188,9.8398 4.6211,15.238c0.33984,2.0234 0.67578,4.0312 1.0977,5.9688c0.51953,2.3906 0.68359,6.3633 0.85156,10.562c0.35938,8.7578 0.72656,17.824 4.2773,21.875c1.7695,2.0234 4.7422,6.3906 7.6211,10.605c5.5312,8.1133 9.0625,13.156 11.367,14.66c2.9414,1.9141 5.3242,5.5703 5.3984,6.6523c0,1.0312 0.24609,2.2188 0.54297,3.3477c-7.6484,0.16406 -14.539,-0.69922 -21.125,-6.6992c-3.1992,-2.9062 -5.8359,-5.0195 -8.0312,-6.7773c-6.2891,-5.0352 -8.1797,-6.5586 -9.6602,-16.109c-2.1797,-14.141 -1.5195,-38.617 0,-48.203c1.3438,-8.5391 0.58203,-19.988 0.19531,-24.465c0.03906,-0.03906 0.09375,-0.05469 0.12891,-0.10156c1.3594,-1.6953 0.84375,-3.9922 0.20313,-6.8945c-0.53125,-2.3867 -1.1875,-5.3477 -0.61719,-7.1719c0.55469,-1.7734 2.0039,-2.4414 6.1055,-4.0977c2.957,-1.1992 6.6406,-2.6875 11.223,-5.4219c2.0703,-1.2305 3.7031,-2.2734 5.0273,-3.2031c-0.09375,3.2578 -0.01563,6.7305 0.57812,8.6445c0.72656,2.3594 2.3984,5.2148 3.6719,7.1953c-12.402,2.0938 -24.812,1.9102 -24.969,1.9258l-0.03125,5.5195l0.46094,0c3.1367,0 20.844,-0.08594 35.062,-4.0977c11.535,-3.2695 21.777,-9.0312 25.352,-13.027c1.1328,4.2266 2.3008,7.7852 3.3555,9.5312c1.6914,2.7891 11.867,13.957 26.059,29.406c6.4219,6.9961 12.492,13.609 13.766,15.211c1.0938,1.3711 2.4688,2.4023 3.9297,3.4961c3.5898,2.6641 7.9531,6.0078 10.711,16.547c-0.65625,-0.84375 -1.3164,-1.6953 -2.0703,-2.6641c-3.2422,-4.1602 -6.5977,-8.4609 -8.5,-11.195c-3.1758,-4.5547 -7.1562,-7.3359 -11.367,-10.27c-2.7031,-1.8945 -5.5,-3.8398 -8.332,-6.4219l-2.8828,-2.6133c-5.6406,-5.0859 -9.3633,-8.4492 -11.688,-12.988c-2.168,-4.2383 -6.7461,-7.6445 -10.422,-10.383c-1.8438,-1.3672 -3.5781,-2.6641 -4.3125,-3.5547l-4.3281,3.5547c1.1641,1.4219 3.0781,2.8438 5.2969,4.4961c3.207,2.3906 7.207,5.3594 8.7734,8.4336c2.793,5.4609 7.043,9.2891 12.926,14.594l2.8633,2.5938c3.1016,2.832 6.1836,4.9844 8.9023,6.8828c3.9609,2.7617 7.375,5.1445 9.9805,8.8867c1.9883,2.8555 5.3867,8.2617 8.6797,12.477c3.8086,4.8867 9.043,8.3047 9.5859,13.902l0.0039,0c0.45312,0 0.90625,2.7148 1.3398,4.4453c0.85156,3.4219 1.7969,6.7148 2.4531,9.9688c-1.2891,-3.4492 -3.7188,-10.008 -5.6992,-13.961c-2.2305,-4.4648 -5.9141,-9.7422 -10.168,-15.703l-2.5859,-3.7031c-3.9492,-5.5703 -8.9258,-9.582 -15.809,-15.082c-2.6055,-2.082 -5.5156,-4.4258 -8.793,-7.168c-5.7461,-4.8086 -10.098,-7.7734 -13.59,-10.148c-3.8008,-2.582 -6.8047,-4.625 -9.9844,-7.9414c-6.4727,-6.7461 -11.301,-10.723 -11.504,-10.891l-3.5508,4.3281c0.04297,0.03906 4.7812,3.9414 11.008,10.426c3.5898,3.7461 6.9727,6.0352 10.879,8.6953c3.5664,2.4258 7.6094,5.168 13.137,9.793c3.3203,2.7812 6.2617,5.1367 8.8945,7.2422c6.7695,5.4102 11.246,8.9805 14.734,13.91l2.6055,3.6523c4.1211,5.7695 7.6836,10.754 9.7148,14.816c2.4297,4.8555 5.8984,14.23 6.2773,15.383l4.8945,-1.625c0.31641,1.9648 0.45703,3.5391 0.26172,4.3789l-0.00021,0.00077zm160.95,-43.461c-0.42188,6.0078 -1.7031,24.297 -5.0781,25.84c-2.7812,1.2617 -2.7773,1.2891 -6.6211,-4.9766c-1.6172,-2.6445 -3.832,-6.25 -6.9844,-10.59c-8.8555,-12.176 -16.488,-11.984 -28.051,-11.66c-3.3828,0.08984 -7.2344,0.20312 -11.66,0.01172c-16.426,-0.60547 -19.27,10.086 -21.32,17.938c-0.73828,2.8398 -1.4375,5.5156 -2.6133,7.4688c-4.5352,7.543 -23.605,15.859 -41.637,18.172c-13.727,1.7656 -26.035,0.89453 -31.375,0.34766c0.05469,-3.7852 -1.2422,-9.3594 -3.3594,-17.863c-1.1875,-4.7812 -2.5078,-10.086 -3.6055,-15.566c-3.0742,-15.383 -9.4453,-20.121 -13.66,-23.25c-1.2109,-0.89453 -2.25,-1.6758 -2.8828,-2.4688c-1.3945,-1.7578 -6.9727,-7.8281 -14.027,-15.52c-9.5039,-10.348 -23.863,-25.977 -25.391,-28.504c-0.23438,-0.38672 -0.49219,-0.98047 -0.76172,-1.6758c8.2695,2.0898 36.344,9.0547 50.07,10.941c7.3711,1.0117 15.418,1.4062 23.141,1.4062c9.625,0 18.75,-0.60938 25.441,-1.3984c7.6289,-0.89453 24.953,-4.6875 38.871,-7.7344c3.7461,-0.81641 7.3711,-1.6133 10.414,-2.2617c0.29297,1.6523 0.58984,4.3633 0.53906,8.5586c-0.0625,4.5352 -1.2266,6.9375 -3.3438,11.312c-1.6875,3.4766 -3.7812,7.8008 -6.1328,14.816c-4.4336,13.184 -6.7969,14.758 -18.168,22.301c-1.5625,1.0352 -3.2812,2.1797 -5.1875,3.4648c-13.867,9.4023 -16.066,9.4805 -26.641,9.8789l-3.543,0.14062l0.25391,5.5898l3.5,-0.13281c11.633,-0.42969 14.934,-0.91406 29.566,-10.836c1.8867,-1.2812 3.5938,-2.4141 5.1445,-3.4375c11.777,-7.8164 15.328,-10.176 20.371,-25.184c2.2383,-6.6758 4.25,-10.824 5.8672,-14.152c2.2188,-4.5859 3.8242,-7.9023 3.8984,-13.676c0.05469,-4.5703 -0.26953,-7.6953 -0.64453,-9.7617c0.90625,-0.17188 1.6367,-0.30078 2.0391,-0.34766l-0.01172,-0.08984c1.3398,1.5117 2.3594,2.6055 2.8164,3.0859c-1.4609,3.09769 -2.4883,7.75779 -2.5703,14.93c-0.09375,8.0859 5.2305,20.418 13.227,28.58999c6.7148,6.8164 18.195,10.938 34.984,16.539l0.86328,0c5.7891,0 10.527,-2.0312 14.578,-3.0195c-0.09766,1.1719 -0.19922,1.1055 -0.31641,2.7734l0.00153,0.00032zm20.719,-24.098c-1.2891,1.0938 -2.5312,3.7344 -3.8398,5.0508c-5.7227,5.7578 -12.219,13.691 -31.137,13.691l-0.8125,0c-14.867,-5.6016 -25.066,-8.7969 -31,-14.863c-8.0742,-8.25 -11.691,-18.512 -11.633,-23.906c0.11719,-10.246 2.207,-15.188 4.2109,-15.188c0.51563,0 1.1797,0.03516 1.9258,0.42578c4.7266,2.4922 6.707,5.6562 7.293,6.793c-0.74609,7.0547 6.3516,21.48 8.707,26.02l4.9688,-2.6055c-3.793,-7.3086 -7.4023,-16.219 -8.1133,-20.809l0.06641,-3.1992c0.0039,-0.25781 0.19531,-6.3398 5.8789,-6.9961c5.7773,-0.67578 9.4062,5.0391 9.4883,6.3242l-0.29688,1.6523l0.11719,0.14062c-0.55859,6.4102 -0.94531,18.535 3.7461,21.594l3.0898,-4.6719c-1.3203,-1.1719 -1.8633,-8.6289 -1.2695,-16.172c0.11328,-0.09375 0.21875,-0.15625 0.33594,-0.25781c2.082,-1.7969 6.8555,-5.2734 11.898,-3.1914c4.2734,1.7656 5.7773,4.1289 7.2422,6.418c1.6133,2.5312 3.4375,5.4023 8.2617,5.7734c2.957,0.25391 4.7109,-0.28125 5.9453,-0.62891c0.66797,-0.18359 1.0352,-0.28516 1.3945,-0.28516c1.082,0 3.1211,1.0352 6.2148,3.1602c2.6094,1.7852 3.9805,3.668 4.0781,5.5938c0.13281,2.7852 -2.2031,6.2852 -6.7617,10.137l0.00094,-0.00012zm4.0938,-21.457c-3.3047,-2.0938 -5.582,-3.0195 -7.6328,-3.0195c-1.1523,0 -2.082,0.26172 -2.9102,0.5c-1.082,0.30859 -2.1211,0.59375 -4,0.4375c-0.64844,-0.05078 -1.1211,-0.20703 -1.5469,-0.42578l16.52,-23.555l2.5195,-26.945l-5.5781,-0.52734l-2.3789,25.469l-14.711,20.977c-0.80469,-1.1367 -1.8047,-2.3516 -3.1797,-3.5234l0.10547,0.02734l6.0352,-22.988l0.09766,-21.426l-5.2383,0l0,20.133l-5.707,21.246c-0.19141,-0.08593 -0.44141,-0.17969 -0.64453,-0.25781c-1.8711,-0.77734 -3.832,-1.1641 -5.7383,-1.1641c-4.0781,0 -7.4141,1.7852 -9.6836,3.4102c-0.46484,-0.88672 -1.043,-1.7266 -1.6133,-2.4414c-3.2578,-4.0703 -7.8945,-6.1758 -12.93,-5.6172c-0.24609,0.02735 -0.42969,0.125 -0.66797,0.16406l-4.457,-19.348l8.0352,-20.199l-5.207,-2.0664l-8.6875,21.816l5.0586,21.965c-1.3906,1.0625 -2.4453,2.375 -3.1992,3.7539c-1.2656,-1.3438 -3.0391,-2.7383 -5.168,-4.0312l-5.3633,-34.938l10.797,-15.254l-4.5703,-3.2383l-12.098,17.102l5.2656,34.281c-1.1523,0.02344 -2.3477,0.33203 -3.5039,1.0352c-3.3711,-3.5898 -10.527,-11.883 -11.918,-16.648c-1.5352,-5.2812 1.7539,-17.07 7.6562,-27.418c3.9102,-6.8594 13.379,-15.328 17.707,-19.008c1.3945,1.8047 2.918,3.6289 4.6484,5.3711c8.6953,8.7344 21.363,10.922 52.711,12.695c2.7617,0.15625 5.293,0.23047 7.6172,0.23047c5.7461,0 10.293,-0.46484 13.965,-1.2773c3.0508,9.9297 12.66,47.797 -10.406,64.703l-0.00023,-0.00004zm20.406,-81.531c-1.1523,6.1484 -2.3516,12.504 -23.957,12.504c-2.2305,0 -4.6523,-0.07422 -7.3008,-0.21875c-28.441,-1.6133 -41.547,-3.5 -49.062,-11.055c-5.9375,-5.957 -9.8164,-13.277 -11.207,-16.129c4.1172,-6.3125 21.141,-18.93 26.945,-23.234c2.6055,-1.9258 2.9453,-2.1914 3.2656,-2.543c0.72266,-0.81641 0.84375,-1.7578 1.0547,-3.1914c0.73438,-5.3086 1.8359,-6.6914 4.3359,-6.2422c1.9102,0.35938 2.5312,1.418 3.8242,4.3281c1.6289,3.6953 3.8711,8.7656 12.387,9.6836c6.7188,0.73828 11.688,-1.6562 15.527,-3.5234c2.0039,-0.97266 3.7422,-1.8086 4.9688,-1.8086c0.46094,0 1.0352,0.10547 1.832,0.89062c2.5352,2.4961 2.207,4.5195 1.7812,7.0781c-0.32031,1.9336 -0.71094,4.3242 1.1367,6.7539c14.508,18.977 14.746,25.234 14.469,26.707l-0.0003,0.00003z"/>
   <path id="svg_28" d="m454.14141,383.57617c-20.926,-3.793 -27.977,-12.914 -28.051,-13.004l-4.5195,3.3086c0.32422,0.44141 8.1992,10.977 31.574,15.211c9.7734,1.7656 19.18,2.5352 27.016,2.5352c9.4922,0 16.684,-1.1328 19.402,-2.9727l-3.1484,-4.6367c-2.3125,1.5625 -18.805,3.8047 -42.273,-0.44141l-0.0001,0.00001z"/>
   <path id="svg_29" d="m452.68141,347.07617c0.10547,-0.33594 0.97266,-3.3438 -0.04297,-6.1484l-5.2578,1.9141c0.32422,0.87891 0.06641,2.2109 -0.04297,2.582l5.34374,1.6523z"/>
   <path id="svg_30" d="m488.03141,352.15617l-4.2656,-3.6289c-0.37109,0.4375 -2.2617,2.7109 -2.9414,4.5547l5.2539,1.9375c0.21875,-0.59375 1.1914,-1.9609 1.9531,-2.8633z"/>
   <path id="svg_31" d="m454.20141,380.74617l5.5898,-0.41016c-0.01562,-0.16797 -0.32422,-4.2227 -1.5586,-7.3125l-5.1953,2.0781c0.75781,1.8867 1.1016,4.7148 1.1641,5.6445l0,0.00006z"/>
   <path id="svg_32" d="m464.20141,375.41617l4.1133,3.8086l-2.9961,3.2383l-4.1133,-3.8086l2.9961,-3.2383z"/>
   <path id="svg_33" d="m235.51141,456.69617l-4.5938,-3.1875c-1.625,1.8359 -15.25,10.047 -25.094,12.746c-9.918,2.7344 -27.859,1.2109 -28.039,1.1992l-0.48828,5.5781c0.39844,0.03516 5.4375,0.46094 11.723,0.46094c5.9414,0 12.996,-0.375 18.289,-1.832c10.316,-2.8398 26.242,-11.984 28.203,-14.965l0.00008,0.00026z"/>
   <path id="svg_34" d="m195.02141,474.42617l-5.5898,-0.33594c-0.01172,0.24609 -1.3828,24.27 3.9883,33.863l0.90625,1.6289c4.3164,7.75 9.6836,17.387 19.438,24.941c9.4141,7.2852 16.676,13.094 24.445,21.543c7.6953,8.3672 11.562,12.551 11.562,12.551l4.1055,-3.8086s-3.8711,-4.1758 -11.547,-12.531c-8.0703,-8.7695 -15.512,-14.727 -25.137,-22.18c-8.8555,-6.8555 -13.699,-15.559 -17.969,-23.234l-0.91797,-1.6406c-3.7773,-6.7617 -3.6328,-24.957 -3.2852,-30.797l0.00092,0.00024z"/>
  </g>
 </g>
</svg>