<svg width="640" height="640" xmlns="http://www.w3.org/2000/svg" version="1.1">

 <g>
  <title>Layer 1</title>
  <g id="svg_81">
   <path id="svg_25" d="m535.82043,425.53235c0,-35.699 -24.91,-83.887 -72.191,-92.383c-13.383,-19.809 -32.891,-28.941 -44.094,-33.113l0,-27.855c0,-11.883 -2.9844,-20.434 -8.625,-25.426c-2.5156,-2.2188 -5.1953,-3.3047 -7.4258,-3.8633c-2.8125,-31.086 -23.066,-64.695 -52.672,-85.859c3.3086,-6.1641 10.254,-23.156 -1.4727,-41.043c-14.707,-22.434 -24.926,-18.277 -26.879,-14.953c-1.9531,3.3203 7.8125,-21.598 -14.52,-30.738c-22.332,-9.1406 -41.512,4.9844 -45.629,9.1406c-4.1211,4.1562 -16.34,-10.801 -33.906,9.9688c-17.566,20.77 -49.234,77.262 -55.832,92.215c-6.2656,14.207 -6.3555,35.379 10.684,37.969c-2.1523,7.3789 -3.2891,14.426 -3.3867,20.77c-2.2383,2.7148 -4.1328,5.4141 -5.6797,8.0742c-4.7305,1.0586 -20.164,6.1992 -20.16,28.273c0,5.5625 0.34766,10.625 1.0234,15.043c1.1094,7.2695 2.9102,11.547 4.2969,13.957l-35.215,28.102l6.8047,15.922l-23.605,33.809l15.402,0l0,10.504c-11.199,12.68 -19.074,23.168 -18.535,31.152c0.33594,4.8672 3.6445,6.8984 3.5664,6.7656l24.629,24.746c-1.6055,6.25 -1.5898,11.848 -0.17969,16.75c0.58984,2.0391 1.457,3.7969 2.375,5.3047c-4.3555,6.25 -18.77,29.469 -18.77,62.445c0,4.8086 1.9648,9.1445 5.8008,12.875c16.039,15.574 64.223,18.637 106.77,18.637c16.453,0 32.066,-0.45312 44.648,-0.82422c7.582,-0.22266 13.789,-0.40234 17.992,-0.40234l6.3438,0.01172c69.027,0.15625 150.13,-1.5273 165.44,-15.746c18.832,-17.488 10.914,-33.297 10.574,-33.965l-0.36328,-0.69922c41.195,-11.551 62.793,-43.969 62.793,-95.562l-0.00213,-0.00254zm-79.91,-93.352c-2.3867,-0.20313 -3.5352,-0.33984 -6.0195,-0.33984c-26.375,0 -41.547,5.4414 -47.145,8.8047l0,-8.5078l-20.43,-2.1797c6.7031,-7.0625 17.91,-20.156 21.242,-27.703c7.3711,0.80078 33.371,5.3594 52.352,29.926l0.0005,-0.00036zm-113.24,101.59l0.19531,1.832c1.1211,10.449 3.3047,30.789 13.727,49.527c-5.9258,4.4805 -20.293,13.836 -35.207,12.633l-8.2617,-12.965c5.5703,-10.129 7.1641,-21.578 3.9141,-29.91c-1.1641,-2.9961 -3.1602,-7.0781 -6.9648,-7.9336c-4.1719,-0.96484 -7.7383,2.4453 -11.211,5.7188c-2.6953,2.5352 -5.75,5.4102 -8.2383,5.4102c-4.457,0 -9.4688,-1.9766 -14.719,-5.5234l68.773,-48.082c-1.6328,6.8398 -3.3242,17.457 -2.0078,29.293l0.00019,0zm-1.2109,66.254l26.203,48.809l34.496,-27.406c3.7461,1.1211 7.7266,2.0547 11.973,2.7734l-52.035,37.453l-37.078,-58.184c5.8242,-0.15234 11.414,-1.5234 16.441,-3.4453l0,-0.0001zm27.961,40.254l-22.809,-42.488c5.4766,-2.6367 9.9805,-5.6523 12.898,-7.8281c7.7266,11.922 19.188,22.742 36.348,29.32l-26.437,20.9961zm-85.457,-40.461c-18.355,1.1523 -34.379,-18.082 -37.051,-21.453c-0.11328,-0.88672 -0.23438,-1.7734 -0.44922,-2.7266c-0.76562,-3.3594 -1.3711,-6.5703 -1.9492,-9.6328c-2.6836,-14.234 -5,-26.523 -20.535,-33.645c-6.6133,-3.0352 -12.629,-4.543 -18.078,-4.8711l-11.406,-21.598c-0.48047,-3.5625 -3.2383,-29.719 17.434,-41.406c11.355,-6.4219 21.918,-4.0586 28.773,-0.94531c9.2461,4.1992 14.398,10.801 14.723,11.977c-0.66016,1.2656 -6.1641,3.0352 -9.8047,4.2109c-4.8164,1.5508 -10.277,3.3164 -14.254,5.957c-8.8359,5.8984 0.21875,20.758 3.625,26.355c4.4336,7.2852 10.383,15.422 16.598,23.816c13.293,17.938 27.156,27.82 39.043,27.82c4.7031,0 8.6172,-3.6797 12.074,-6.9258c2.0664,-1.9492 4.8438,-4.6797 6.1445,-4.3281c0.22266,0.05078 1.4219,0.50391 2.9844,4.5078c2.9102,7.4766 0.95703,18.312 -4.9766,27.59c-5.8867,9.1836 -14.23,14.762 -22.895,15.297l-0.00018,0.00101zm-146.24,-27.91c-2.3242,-8.0547 0.73828,-19.344 8.8477,-32.664c16.57,-27.227 37.715,-29.59 43.52,-29.707l9.6055,18.188c-8.5781,1.2695 -15.191,6.3828 -19.125,15.434l-0.22266,0.85547c-0.26953,2.8789 -2.1602,25.473 3.0195,37.375c-17.406,0.83594 -35.363,1.0703 -37.941,0.05469c-1.7305,-0.85937 -5.9727,-3.5273 -7.7031,-9.5352l-0.00094,-0.00096zm48.16,-26.914c5.9961,-13.301 18.188,-15.598 35.762,-7.5469c12.902,5.918 14.684,15.332 17.371,29.598c0.58984,3.125 1.2109,6.4102 1.9883,9.8398c2.918,12.812 -6.9141,16.906 -20.082,20.926c-1.7539,0.53906 -3.3945,1.043 -4.8203,1.5469c-7.4648,2.6641 -17.289,-7.875 -24.18,-15.461l-1.668,-1.832c-5.7148,-6.2344 -5.1211,-28.434 -4.3711,-37.07l0.0001,-0.0008zm36.676,58.168c8.2227,-2.5078 20.707,-6.3711 23.812,-16.879c5.1641,5.543 14.48,13.996 25.828,17.523l-25.395,39.465l-28.488,-38.742c1.2812,-0.44922 2.6953,-0.89062 4.2422,-1.3672l0.0008,0.0002zm-46.727,-201.58c0.21875,-4.7109 0.07422,-10.141 -0.11328,-17.023c-0.16406,-6.0938 -0.35156,-13.363 -0.35156,-22.309c0,-25.754 75.75,-72.699 108.04,-72.699c16.547,0 46.801,13.699 69.598,26.512c29.488,16.574 45.191,30.496 45.191,34.172c0,4.0273 0.13281,9.5039 0.28516,15.383c0.32031,12.461 0.70703,27.965 -0.24219,33.168c-0.90234,4.9883 -14.941,20.848 -24.219,30.375l-9.0273,-1.0234l-32.676,20.266l2.0273,-2.0273l-7.1289,-7.1289l-13.344,13.352l4.4727,4.4727l-23.711,14.707c-18.984,2.4805 -36.887,-4.2227 -39.547,-5.2812c-2.8242,-2.6484 -6.4609,-5.3047 -10.656,-7.3867c-3.3438,-1.6641 -6.7461,-2.7812 -10.152,-3.4766l0.23047,-0.33594c-24.605,-16.957 -59.074,-44.84 -58.672,-53.715l-0.0044,-0.00166zm111.27,-160.36c14.195,0 27.742,3.2031 40.203,8.6914l-14.93,41.043c-11.613,-4.3164 -21.906,-7.0117 -28.965,-7.0117c-7.1016,0 -16.418,2.1992 -26.668,5.9453l-15.805,-35.816c14.5,-8.4961 30.012,-12.852 46.164,-12.852l0.001,0zm-48.754,265.46c-5.0508,-8.832 -6.4609,-14.621 -3.8789,-16.34c3.3281,-2.2188 8.3945,-3.8516 12.863,-5.2852c7.6953,-2.4766 14.336,-4.6211 13.609,-10.059c-0.02734,-0.21094 -0.14453,-0.46875 -0.20703,-0.69922c5.8789,1.6797 14.422,3.4961 23.984,3.6289l-46.37007,28.75452zm34.137,42.309c-4.9883,-4.1953 -10.742,-9.6875 -15.77,-16.477c-0.41016,-0.55469 -1.1211,-1.0938 -1.5273,-1.6445l128.73,-83.07l-3.1094,-4.7031l-129.22,83.258c-3.8086,-5.2148 -7.3242,-10.215 -10.305,-14.891l126.3,-77.547l29.551,3.2148l0,25.613l-124.6493,86.2468zm126.47,-82.465c0.11719,-0.07422 0.80469,-0.49219 2,-1.1523l26.582,31.879c-2.793,2.9219 -5.1055,6.4102 -6.793,10.109l-48.574,-18.289c0.91406,-2.5586 1.6367,-4.3359 2.0117,-5.2188l24.7733,-17.3279zm71.789,53.793c0,19.523 -7.4492,29.422 -22.137,29.422c-14.914,0 -25.328,-12.035 -25.328,-29.27c0,-12.824 10.965,-25.895 21.727,-25.895c10.344,0.00391 25.738,6.8594 25.738,25.742l0,0.001zm-100.35,-25.934l48.418,18.227c-0.73438,2.6367 -1.1406,5.2969 -1.1406,7.8633c0,5.875 1.0742,11.219 2.9844,15.887l-42.402,37.699c-9.5586,-12.812 -14.133,-27.855 -14.133,-40.602c-0.00391,-15.598 3.3789,-29.773 6.2734,-39.074l-0.0002,-0.0003zm52.898,47.129c2.1406,3.4062 4.8164,6.2773 7.9727,8.5078l-23.004,47.051c-10.891,-4.3867 -19.719,-10.938 -26.477,-18.652l41.5083,-36.9068zm12.844,11.285c3.7422,1.6523 7.9297,2.543 12.465,2.543c6.6523,0 12.188,-1.7344 16.527,-5.0586l20.805,37.891c-11.762,8.6406 -27.262,14.629 -46.91,14.629c-9.4414,0 -17.91,-1.3789 -25.484,-3.7695l22.597,-46.2349zm54.215,31.789l-21.094,-38.414c2.1094,-2.6992 3.7188,-6.0352 4.8945,-9.8672l34.727,24.191c-4.0508,8.3672 -10.172,16.879 -18.527,24.09l-0.0005,0.0002zm20.816,-29.324l-35.695,-24.863c0.50781,-3.1211 0.86328,-6.418 0.86328,-10.078c0,-6.6992 -1.6914,-12.332 -4.4805,-16.918l26.875,-20.793c13.664,18.414 16.324,40.324 16.324,54.461c0.00391,5.168 -1.3008,11.52 -3.8867,18.191l-0.00008,0zm-42.66,-56.348c-2.6367,-2.8672 -5.7852,-5.1172 -9.2305,-6.7539l10.477,-32.672c0.50391,0.23047 1.0117,0.38672 1.5195,0.62891c10.113,4.918 17.887,11.207 23.934,18.137l-26.7,20.65999zm-14.488,-8.6992c-2.9336,-0.8125 -5.9805,-1.2383 -9.0234,-1.2383c-4.8164,0 -9.3242,1.7539 -13.242,4.5859l-25.676,-30.789c11.406,-5.3477 34.828,-13.602 58.48,-5.4336l-10.5386,32.875zm-46.738,-139.19c4.2734,3.8398 6.6484,11.152 6.6484,21.148l0,26.293c-5.6016,-0.98438 -7.4805,-1.4961 -9.6953,-1.7344c0.57812,-7.0508 0.19531,-19.789 -0.09375,-31.258c-0.14453,-5.8281 -0.3125,-11.258 -0.3125,-15.242c0,-0.44922 0.01172,-0.90234 0.00391,-1.3477c1.0977,0.45312 2.3086,1.1133 3.4492,2.1406l0.00004,0.0005zm-9.7812,-10.992c-14.301,-14.41 -50.34,-35.262 -79.906,-47.062l14.789,-40.66c35.262,17.73 60.719,53.949 65.117,87.723l0,-0.001zm-114.89,-134.02c28.66,0 31.289,17.168 31.496,33.312c-8.668,-2.3789 -17.703,-3.7188 -27.008,-3.7188c-13.898,0 -27.332,3.0234 -40.105,8.9492c0.47266,-22.566 6.543,-38.543 35.617,-38.543l0,0.0006zm-46.473,51.062l15.367,34.828c-22.855,9.2344 -49.078,25.312 -65.531,41.766c3.0859,-24.547 20.422,-56.961 50.164,-76.594zm-75.562,133.83c-0.63281,-4.1445 -0.95312,-8.9219 -0.95703,-14.195c-0.00391,-13.305 6.4922,-18.938 11.352,-21.309c-0.76172,2.3398 -1.2109,4.6328 -1.2109,6.8359c0,9.0117 0.19531,16.324 0.35156,22.457c0.125,4.7148 0.22266,8.707 0.20703,12.242l-6.5391,5.2188c-0.98438,-1.9492 -2.3125,-5.4141 -3.2031,-11.25l-0.00046,0.0003zm10.035,12.969c2.4883,9.6055 19.527,24.863 35.234,37.238l-69.957,4.9375l-4.8555,-10.605l39.5785,-31.5705zm-52.344,74.055l17.395,-25.188l76.828,-5.9453c4.4453,3.3711 8.4883,6.0586 11.859,8.4727c-5.2344,0.39062 -10.367,1.7461 -15.18,4.4688c-6.8438,3.8711 -11.664,9.0156 -14.766,14.566c-4.5352,-0.83203 -21.277,-1.2031 -38.078,3.625l-38.058,0.0008zm24.422,5.6016c-4.1523,0 -8.7617,2.5625 -14.363,5.7031l0,-5.7031l14.363,0zm-30.727,44.227c-0.04297,-0.03906 -1.1016,-0.94531 -1.1641,-3.2656c-0.09375,-3.6172 2.1992,-11.969 18.688,-27.215c23.258,-21.508 53.73,-19.047 62.668,-17.758c-3.8008,9.7266 -3.8125,19.543 -3.4648,24.473c-8.2305,0.48047 -29.965,4.5195 -46.906,32.34c-3.0977,5.0898 -5.4531,9.8789 -7.1719,14.391l-22.6492,-22.9654zm26.422,55.512c1.7812,1.6289 3.4883,2.6641 4.5352,3.1875c1.9023,0.95312 8.1328,1.2695 15.605,1.2695c9.6328,0 21.281,-0.52734 28.477,-0.90625l0.76562,0.84375c6.7812,7.4648 15.137,16.543 24.098,17.551l35.234,47.926l30.891,-47.996c1.4453,0.20312 2.9102,0.32422 4.4023,0.32422c0.63281,0 1.2695,-0.02344 1.9102,-0.0625c2.3594,-0.14453 4.6758,-0.63281 6.9492,-1.3477l-39.207,62.789c-4.0977,0.08594 -8.3672,0.15625 -12.762,0.20312c-4.6523,-10.047 -32.496,-67.234 -63.402,-67.234c-29.188,0 -50.305,18 -53.895,44.645c-0.32031,-1.0469 -0.53906,-2.1172 -0.53906,-3.2461c-0.00391,-29.094 12.16,-50.613 16.938,-57.945l-0.00046,-0.00154zm-4.543,72.242c1.2109,-13.344 16.906,-19.363 32.508,-19.363c15.07,0 25.363,15.18 26.168,30.016c-23.527,-1.3281 -45.465,-4.3633 -58.676,-10.652l0,-0.001zm64.289,10.941c-0.67578,-17.562 -12.68,-35.902 -31.781,-35.902c-17.336,0 -34.758,6.8594 -37.734,21.973c-0.55469,-0.37891 -1.082,-0.77344 -1.5781,-1.1758c0.60938,-27.105 20.492,-45.941 48.836,-45.941c25.441,0 50.539,47.945 57.211,61.68c-11.328,0.04687 -23.254,-0.10156 -34.953,-0.63281l-0.0009,-0.00139zm99.25,-0.55859l-6.3555,-0.01172c-4.2383,0 -10.5,0.17969 -18.156,0.40234c-4.2656,0.12891 -9.0273,0.26172 -14.129,0.39062l42.301,-67.75c3.2031,-2.3867 6.1562,-5.3828 8.7539,-8.9258l47.988,75.309c-24.484,0.65234 -47.305,0.61328 -60.402,0.58594l-0.0004,-0.00038zm161.62,-14.246c-3.3359,3.0977 -10.93,5.5156 -21.18,7.4219c0.74609,-7.9062 5.2188,-28.016 31.254,-32.848c1.1016,4.0039 2.1289,14.09 -10.074,25.426l0,0.0001zm-26.832,8.375c-17.879,2.7656 -41.848,4.2344 -65.211,5.0195l55.145,-39.68l-0.10156,-0.14062c4.2617,0.42578 8.7305,0.67188 13.473,0.67188c0.53906,0 1.0703,-0.00391 1.6133,-0.01172c6.6484,-0.06641 12.887,-0.58984 18.883,-1.3789c-20.07,9.207 -23.312,28.711 -23.801,35.52l-0.00074,-0.00014zm4.8633,-39.746c-79.477,0.86719 -86.332,-63.98 -88.605,-85.277l-0.19531,-1.8555c-1.8047,-16.195 2.5664,-30.363 3.7305,-33.773l14.09,-9.8516c-3.1914,9.4258 -7.5312,25.57 -7.5312,43.934c0,31.121 24.977,74.938 80.5,74.938c56.984,0 81.637,-47.242 81.637,-71.332c0,-22.086 -4.8281,-62.113 -45.668,-81.977c-30.934,-15.047 -61.062,-1.6172 -72.262,4.3125l0,-12.414c0,-2.3008 17.168,-9.5469 47.145,-9.5469c53.246,0 80.969,51.16 80.969,88.094c0.00391,62.219 -31.984,94.098 -93.809,94.75l-0.00099,-0.0015z"/>
   <path id="svg_26" d="m268.34043,232.20235l-67.16,28.137l67.16,0l0,-28.137z"/>
   <path id="svg_27" d="m307.54043,232.20235l0,28.137l68.578,0l-68.578,-28.137z"/>
   <path id="svg_28" d="m432.10043,415.30235c0,11.555 6.6289,18.02 18.184,18.02c9.2891,0 14.84,-5.3086 14.84,-14.605c0,-4.375 -1.3398,-18.379 -19.098,-18.379l-0.08984,0c-4.7891,0 -13.836,4.9258 -13.836,14.965l-0.00016,-0.001zm14.355,-10.059c10.801,0 13.07,7.1133 13.07,13.07c0,6.2227 -3.0234,9.2461 -9.2383,9.2461c-8.4688,0 -12.582,-4.1172 -12.582,-12.582c-0.00781,-7.875 8.8984,-9.7109 8.75,-9.7344l0.0003,0.0003z"/>
   <path id="svg_29" d="m205.19043,308.99235l-13.344,-13.344l7.1289,-7.1289l13.344,13.344l-7.1289,7.1289z"/>
   <path id="svg_30" d="m218.17043,321.25235l7.1289,-7.1289l13.344,13.344l-7.1289,7.1289l-13.344,-13.344z"/>
   <path id="svg_31" d="m272.11043,308.99235l-13.344,-13.348l7.1289,-7.125l13.344,13.348l-7.1289,7.125z"/>
   <path id="svg_32" d="m238.19043,308.99235l-13.344,-13.344l7.1289,-7.1289l13.344,13.344l-7.1289,7.1289z"/>
   <path id="svg_33" d="m256.74043,359.22235l-13.344,-13.348l7.1328,-7.1289l13.344,13.348l-7.1328,7.1289z"/>
   <path id="svg_34" d="m265.43043,334.60235l-13.344,-13.344l7.1289,-7.1289l13.344,13.344l-7.1289,7.1289z"/>
   <path id="svg_35" d="m385.91043,296.10235l-13.352,13.348l-7.125,-7.1289l13.352,-13.348l7.125,7.1289z"/>
   <path id="svg_36" d="m346.23043,335.08235l-7.1328,-7.1328l13.344,-13.344l7.1328,7.1328l-13.344,13.344z"/>
   <path id="svg_37" d="m311.85043,288.99235l7.1289,7.125l-13.344,13.348l-7.1289,-7.125l13.344,-13.348z"/>
   <path id="svg_38" d="m345.78043,288.98235l7.1289,7.125l-13.344,13.355l-7.1289,-7.125l13.344,-13.355z"/>
   <path id="svg_39" d="m312.34043,335.08235l-7.125,-7.1289l13.355,-13.344l7.125,7.1289l-13.355,13.344z"/>
  </g>
 </g>
</svg>