<svg width="900.0000000000002" height="900.0000000000002" xmlns="http://www.w3.org/2000/svg" version="1.1" enable-background="new 0 0 1000 1000" xml:space="preserve">
 <metadata>Svg Vector Icons : http://www.onlinewebfonts.com/icon</metadata>

 <g>
  <title>Layer 1</title>
  <rect fill="#000" stroke="#0fffff" x="0" y="482.85344" width="2.85714" height="1.42857" id="svg_7" stroke-opacity="0"/>
  <g id="svg_8">
   <g id="svg_1">
    <g transform="translate(0 511) scale(0.1 -0.1)" id="svg_2">
     <path d="m4210.04944,4554.86158c-206,-24 -384,-56 -550,-100c-210,-54 -516,-164 -532,-190c-6,-10 -4,-78 2,-154l14,-134l168,-100c116,-68 166,-108 160,-130c-6,-16 -16,-110 -24,-206c-6,-96 -18,-172 -24,-166c-6,6 -16,90 -22,186l-12,174l-160,92l-160,92l-6,114c-4,62 -10,114 -14,114s-68,-14 -144,-30c-100,-24 -178,-60 -298,-140c-806,-542 -1344,-1448 -1448,-2433.9c-12,-112 -20,-1256 -20,-2829.9l0,-2645.9l-650,0l-650,0l0,-650l0,-650l4660,0l4659.9,0l0,650l0,650l-650,0l-650,0l0,2645.9c0,1635.9 -8,2711.9 -20,2823.9c-42,370 -138,734 -274,1032l-68,152l-184,34l-184,32l-212,-224l-214,-226l-266,68c-148,38 -282,72 -300,78c-24,4 -82,-56 -190,-194c-86,-110 -158,-198 -162,-194c-12,12 238,472 256,472c18,0 472,-70 582,-90c52,-8 76,18 326,342l270,352l-66,92c-34,52 -164,192 -284,314c-438,438 -946,728 -1540,880c-365.9,93.9 -815.9,131.9 -1119.9,97.9zm-1090,-4127.9c202,-32 362,-120 446,-246c40,-56 82,-148 96,-200c28,-116 14,-286 -32,-374c-48,-94 -182,-232 -250,-260c-34,-14 -60,-36 -60,-50c0,-30 230,-550 332,-754c40,-78 64,-148 54,-156c-16,-16 -450,-162 -456,-154c-2,2 -50,126 -108,274c-130,338 -288,700 -304,700c-24,0 -38,-88 -38,-232c0,-78 -6,-278 -14,-446l-12,-306l-242,14c-134,8 -246,18 -248,20c-4,4 4,186 16,404c14,218 30,702 38,1075.9l12,680l100,12c170,20.2 534,18.2 670,-1.9zm1592,-4c6,-6 4,-504 -4,-1104l-14,-1092l-278,0l-280,0l12,56c26,132 132,1826 132,2121.9l0,48l210,-10c116,-5.8 216,-13.8 222,-19.9zm1658,-21.9c222,-62 388,-198 474,-384c64,-140 66,-454 2,-594c-122,-268 -332,-398 -698,-432l-158,-14l-18,-378l-18,-378l-232,14c-126,8 -234,18 -240,22c-4,4 4,246 16,534c14,290 30,776 36,1080c10,482 16,556 44,564c68,21.9 693.9,-6 792,-34z" id="svg_3"/>
     <path d="m2840.04944,-182.93842c0,-256 0,-256 142,-208c152,52 222,174 178,310c-28,84 -112,128 -240,128l-80,0l0,-230z" id="svg_4"/>
     <path d="m6032.04944,5.06158c-6,-38 -16,-198 -22,-358l-10,-292l116,12c204,20 284,110 298,340c14,214 -74,324 -280,352l-92,14l-10,-68z" id="svg_5"/>
    </g>
   </g>
   <rect fill="#000000" x="201.42853" y="448.56773" width="495.71429" height="258.57143" id="svg_6"/>
  </g>
  <g stroke="null">
   <g stroke="null">
    <title stroke="null" fill="#ffffff">Layer 1</title>
    <path stroke="null" fill="#ffffff" id="svg_14" d="m623.56665,346.88198l-78.44224,23.83298c-4.6591,1.53631 -5.0491,8.07314 -0.38735,9.99293l24.85299,9.60924l-49.70875,48.81564c-67.56767,-56.50235 -165.42769,-61.88353 -237.26835,-47.66254c-9.32056,1.9224 -15.14479,10.76235 -13.20246,19.60217c1.94219,9.22556 10.87318,14.99042 19.80403,13.06789c5.43645,-1.1529 11.26012,-1.9224 16.69671,-2.69189l115.72172,114.54218l-50.48055,50.74092l-27.57267,-6.53394c-1.94219,-0.3834 -3.88439,0 -5.43645,1.53631l-11.26012,11.14535c-3.10697,3.0753 -1.55213,8.45613 2.71961,9.22556l20.58138,4.99763l-13.20246,13.06789l-27.18503,-6.53394c-1.94219,-0.3834 -3.88439,0 -5.43645,1.53631l-11.26012,11.14535c-3.10697,3.0753 -1.55213,8.45613 2.71961,9.22556l30.67652,7.30371c1.94219,0.3834 3.88439,1.9224 4.27175,4.2282l7.37892,30.36384c1.16478,4.2282 6.21387,5.76445 9.32056,2.69189l11.26012,-11.14535c1.55213,-1.53631 1.94219,-3.45871 1.55213,-5.38104l-6.21387,-26.9052l13.20246,-13.06789l4.6591,20.3716c1.16478,4.2282 6.21387,5.76445 9.32056,2.69189l11.26012,-11.14535c1.55213,-1.53631 1.94219,-3.45871 1.55213,-5.38104l-6.60123,-27.29162l50.87026,-50.35175l123.8766,122.22272c-0.77742,5.76445 -1.94219,11.14535 -2.71961,16.52653c-1.94219,9.22556 3.88439,18.06538 13.20246,19.60217c1.16478,0.3834 2.32955,0.3834 3.49433,0.3834c7.76586,0 14.75715,-5.38104 16.69671,-13.45431c15.14479,-74.18336 8.54321,-175.65697 -55.14256,-242.92168l49.31834,-48.81564l9.7082,24.59966c1.94219,4.61161 8.54321,4.2282 10.09583,-0.3834l24.07564,-77.25832c0.39277,-3.8367 -3.48885,-7.68122 -7.37338,-6.14518l0.00485,0.00055zm-286.97433,71.87714c54.36452,-2.69189 114.55673,8.07314 159.60277,44.20115l-57.47184,56.50235l-102.13093,-100.7035zm228.33681,226.00941l-109.50847,-108.77664l57.86155,-56.88604c41.93941,44.97126 54.75493,108.77664 51.64761,165.66336l-0.00069,-0.00069z"/>
   </g>
  </g>
 </g>
</svg>