<svg width="900.0000000000001" height="900.0000000000001" xmlns="http://www.w3.org/2000/svg" xml:space="preserve" enable-background="new 0 0 1000 1000" version="1.1">
 <metadata>Svg Vector Icons : http://www.onlinewebfonts.com/icon</metadata>

 <g>
  <title>Layer 1</title>
  <rect stroke-opacity="0" id="svg_7" height="1.42857" width="2.85714" y="482.85344" x="0" stroke="#0fffff" fill="#000"/>
  <g id="svg_8">
   <g id="svg_1">
    <g id="svg_2" transform="translate(0 511) scale(0.1 -0.1)">
     <path id="svg_3" d="m4210.04944,4554.86158c-206,-24 -384,-56 -550,-100c-210,-54 -516,-164 -532,-190c-6,-10 -4,-78 2,-154l14,-134l168,-100c116,-68 166,-108 160,-130c-6,-16 -16,-110 -24,-206c-6,-96 -18,-172 -24,-166c-6,6 -16,90 -22,186l-12,174l-160,92l-160,92l-6,114c-4,62 -10,114 -14,114s-68,-14 -144,-30c-100,-24 -178,-60 -298,-140c-806,-542 -1344,-1448 -1448,-2433.9c-12,-112 -20,-1256 -20,-2829.9l0,-2645.9l-650,0l-650,0l0,-650l0,-650l4660,0l4659.9,0l0,650l0,650l-650,0l-650,0l0,2645.9c0,1635.9 -8,2711.9 -20,2823.9c-42,370 -138,734 -274,1032l-68,152l-184,34l-184,32l-212,-224l-214,-226l-266,68c-148,38 -282,72 -300,78c-24,4 -82,-56 -190,-194c-86,-110 -158,-198 -162,-194c-12,12 238,472 256,472c18,0 472,-70 582,-90c52,-8 76,18 326,342l270,352l-66,92c-34,52 -164,192 -284,314c-438,438 -946,728 -1540,880c-365.9,93.9 -815.9,131.9 -1119.9,97.9zm-1090,-4127.9c202,-32 362,-120 446,-246c40,-56 82,-148 96,-200c28,-116 14,-286 -32,-374c-48,-94 -182,-232 -250,-260c-34,-14 -60,-36 -60,-50c0,-30 230,-550 332,-754c40,-78 64,-148 54,-156c-16,-16 -450,-162 -456,-154c-2,2 -50,126 -108,274c-130,338 -288,700 -304,700c-24,0 -38,-88 -38,-232c0,-78 -6,-278 -14,-446l-12,-306l-242,14c-134,8 -246,18 -248,20c-4,4 4,186 16,404c14,218 30,702 38,1075.9l12,680l100,12c170,20.2 534,18.2 670,-1.9zm1592,-4c6,-6 4,-504 -4,-1104l-14,-1092l-278,0l-280,0l12,56c26,132 132,1826 132,2121.9l0,48l210,-10c116,-5.8 216,-13.8 222,-19.9zm1658,-21.9c222,-62 388,-198 474,-384c64,-140 66,-454 2,-594c-122,-268 -332,-398 -698,-432l-158,-14l-18,-378l-18,-378l-232,14c-126,8 -234,18 -240,22c-4,4 4,246 16,534c14,290 30,776 36,1080c10,482 16,556 44,564c68,21.9 693.9,-6 792,-34z"/>
     <path id="svg_4" d="m2840.04944,-182.93842c0,-256 0,-256 142,-208c152,52 222,174 178,310c-28,84 -112,128 -240,128l-80,0l0,-230z"/>
     <path id="svg_5" d="m6032.04944,5.06158c-6,-38 -16,-198 -22,-358l-10,-292l116,12c204,20 284,110 298,340c14,214 -74,324 -280,352l-92,14l-10,-68z"/>
    </g>
   </g>
   <rect id="svg_6" height="258.57143" width="495.71429" y="448.56773" x="201.42853" fill="#000000"/>
  </g>
  <g stroke="null" fill="white">
   <g stroke="null">
    <title stroke="null" fill="#ffffff">Layer 1</title>
    <g stroke="null" id="svg_9">
     <path stroke="null" fill="#ffffff" d="m397.511,560.94342l20.39271,26.70193l188.77617,-179.21259l34.87245,-91.52929l-91.52929,34.87245l-179.20573,188.76931l26.6937,20.39819z" id="svg_11"/>
     <path stroke="null" fill="#ffffff" d="m422.1295,656.68892l18.40869,-18.40047l-52.13488,-68.2346l-68.23186,-52.14311l-18.40595,18.41623l44.00687,44.00687l-51.74617,51.74411c-9.21463,-0.41777 -18.56637,2.79044 -25.60709,9.83095c-13.28824,13.28001 -13.30126,34.82994 -0.00268,48.12298c13.29852,13.30126 34.85668,13.30126 48.14697,0.00803c7.04071,-7.04071 10.23269,-16.39177 9.81175,-25.60709l51.75165,-51.75165l44.00269,44.00774z" id="svg_10"/>
    </g>
   </g>
  </g>
 </g>
</svg>